<svg xmlns="http://www.w3.org/2000/svg" viewBox="0 0 27.48 27.48"><defs><style>.cls-1{fill:#ffff54;}.cls-2,.cls-3{fill:none;stroke:#000;stroke-miterlimit:10;stroke-width:0.25px;}.cls-3{stroke-dasharray:1.92 1.92;}</style></defs><g id="Layer_2" data-name="Layer 2"><g id="Layer_1-2" data-name="Layer 1"><circle class="cls-1" cx="13.74" cy="13.74" r="13.74"/><path class="cls-1" d="M4.31,3.75s8.32,6.91,2.2,21.67"/><path class="cls-2" d="M4.31,3.75a8.33,8.33,0,0,1,.7.71"/><path class="cls-3" d="M6.17,6c1.9,2.91,4.16,8.7,1,17.61"/><path class="cls-2" d="M6.88,24.49c-.12.31-.24.62-.37.93"/><path class="cls-1" d="M22.52,3.75s-8.33,6.91-2.2,21.67"/><path class="cls-2" d="M22.52,3.75a8.33,8.33,0,0,0-.7.71"/><path class="cls-3" d="M20.66,6c-1.9,2.91-4.17,8.7-1,17.61"/><path class="cls-2" d="M20,24.49c.11.31.24.62.37.93"/></g></g></svg>