<?xml version="1.0" encoding="utf-8"?>
<!-- Generator: Adobe Illustrator 26.0.2, SVG Export Plug-In . SVG Version: 6.00 Build 0)  -->
<svg version="1.1" id="Layer_1" xmlns="http://www.w3.org/2000/svg" xmlns:xlink="http://www.w3.org/1999/xlink" x="0px" y="0px"
	 viewBox="0 0 211 205" style="enable-background:new 0 0 211 205;" xml:space="preserve">
<style type="text/css">
	.st0{fill:#D6EEC9;stroke:#EBFFE0;stroke-width:5;}
</style>
<path class="st0" d="M70.57,20.44c6.86-23.84,40.99-23.26,47.26,0.91c3.9,15.06,18.83,24.6,34.13,21.7l30.25-5.73
	c23.57-4.46,36.07,26.81,15.93,39.83l-2.54,1.64c-9.64,6.23-13.31,18.54-8.65,29.03c0.49,1.1,1.06,2.16,1.71,3.17l2.72,4.21
	c16.18,25.1-4.14,57.71-33.8,54.26l-10.84-1.26c-12.71-1.48-24.72,6.19-28.73,18.34c-6.78,20.56-36.06,19.96-41.99-0.86l-1.55-5.44
	c-4.61-16.17-22.15-24.89-37.86-18.95c-12.99,4.91-24.46-1.08-30.07-10.62c-5.6-9.52-5.18-22.26,5.62-30.94l4.25-3.42
	c11.16-8.97,12.27-25.57,2.39-35.94C8.96,70.06,13.21,53,26.75,48.5l24.8-8.25C60.78,37.18,67.89,29.77,70.57,20.44z"/>
</svg>
