<svg width="131" height="83" viewBox="0 0 131 83" fill="none" xmlns="http://www.w3.org/2000/svg">
<path d="M28.6562 2.1667C15.0334 5.80642 12.8891 20.132 13.5198 26.8398C7.2129 30.7478 -3.68076 41.9236 3.19945 55.3626C11.7997 72.1613 24.1841 68.4866 30.3763 67.6116C44.3087 91.4098 60.4772 79.5107 66.6693 75.1361C89.0988 90.9548 100.898 73.5612 103.994 62.887C112.021 63.5286 128.419 60.9971 129.795 45.7383C131.515 26.6648 122.055 23.69 114.315 20.1903C103.994 -5.18271 85.7619 4.44154 78.7097 8.64122C65.3621 -3.11787 53.8836 3.04164 49.8128 7.59128C48.4368 4.26654 42.279 -1.47301 28.6562 2.1667Z" fill="white" stroke="#D6EEFF"/>
</svg>
