<?xml version="1.0" encoding="utf-8"?>
<!-- Generator: Adobe Illustrator 26.0.2, SVG Export Plug-In . SVG Version: 6.00 Build 0)  -->
<svg version="1.1" xmlns="http://www.w3.org/2000/svg" xmlns:xlink="http://www.w3.org/1999/xlink" x="0px" y="0px"
	 viewBox="0 0 87.44 102.32" style="enable-background:new 0 0 87.44 102.32;" xml:space="preserve">
<style type="text/css">
	.st0{fill:#80541E;stroke:#000000;stroke-width:0.25;stroke-miterlimit:10;}
	.st1{fill:#FFCD9A;stroke:#000000;stroke-width:0.25;stroke-miterlimit:10;}
	.st2{fill:none;stroke:#000000;stroke-width:0.25;stroke-miterlimit:10;}
	.st3{fill:#7F551E;stroke:#000000;stroke-width:0.2789;stroke-miterlimit:10;}
	.st4{fill:#FFCD9A;stroke:#000000;stroke-width:0.2529;stroke-miterlimit:10;}
	.st5{fill:#FFCD9A;stroke:#000000;stroke-width:0.3073;stroke-miterlimit:10;}
	.st6{fill:#FFCD9A;stroke:#000000;stroke-width:0.3527;stroke-miterlimit:10;}
	.st7{fill:#FFFFFF;stroke:#000000;stroke-width:0.25;stroke-miterlimit:10;}
	.st8{stroke:#000000;stroke-width:0.2871;stroke-miterlimit:10;}
	.st9{fill:#FFCD9A;stroke:#000000;stroke-width:0.252;stroke-miterlimit:10;}
	.st10{stroke:#000000;stroke-width:0.3527;stroke-miterlimit:10;}
	.st11{fill:#FF0000;stroke:#000000;stroke-width:0.3527;stroke-miterlimit:10;}
	.st12{fill:#FFC0C3;stroke:#000000;stroke-width:0.25;stroke-miterlimit:10;}
	.st13{fill:#595959;stroke:#000000;stroke-width:0.25;stroke-miterlimit:10;}
	.st14{fill:#595959;stroke:#000000;stroke-width:0.2992;stroke-miterlimit:10;}
	.st15{fill:#5C5C5C;stroke:#000000;stroke-width:0.25;stroke-miterlimit:10;}
	.st16{fill:#5C5C5C;}
	.st17{fill:none;stroke:#000000;stroke-width:0.285;stroke-miterlimit:10;}
	.st18{stroke:#000000;stroke-width:0.25;stroke-miterlimit:10;}
	.st19{fill:none;stroke:#000000;stroke-width:0.2533;stroke-miterlimit:10;}
	.st20{fill:#FDB8B7;}
	.st21{fill:#5C5C5C;stroke:#000000;stroke-miterlimit:10;}
</style>
<g id="Layer_2">
	<g>
		<g>
			<rect x="47.33" y="71.13" class="st0" width="13.93" height="28.13"/>
			<path class="st0" d="M0.13,73.68c0,0,0.08,9.21,8.67,10.73s11.02-7.97,11.02-7.97s2.44-5.24,7.31-4.58
				c4.87,0.66,4.05,6.81,4.05,6.81h3.18c0,0,0.37-2.81-0.74-5.37c-1.11-2.56-3.67-4.33-4-4.54s-4.42-3.47-9.17,1.53
				c0,0-2.6,2.48-3.43,4.09c-0.83,1.61-3.47,4.38-7.35,3.9c-3.88-0.48-4.5-3.78-4.5-3.78s-0.29-1.03,1.36-1.9
				c0.21-0.78,0.7-2.31-0.91-2.97c-1.61-0.66-3.47-0.1-4.42,1.5S0.13,73.68,0.13,73.68z"/>
			<g>
				<path class="st1" d="M36.59,95.82l-4.1-2.31h-3.28c0,0-3.39,0.41-2.97,3.3c0,0-0.17,1.43,1.13,2.48c0,0,0.33,1.43,2.34,1.27
					c0,0,1.65,1.65,4.1,0.17c0,0,0.28-0.39,1.29-0.22l3.63,0.03L36.59,95.82z"/>
				<path class="st2" d="M31.47,96.64c0,0-3.55,0.83-1.76,3.91"/>
				<path class="st2" d="M30.33,95.27c0,0-1.89,0.19-2.97,4.02"/>
			</g>
			<path class="st0" d="M39.38,78.28c0,0-1.17,0.27-5.1-0.85s-5.74,2.93-5.74,2.93s-1.32,2.89-0.87,6.4h0.5c0,0-0.74,2.89,0.74,1.98
				c0,0,1.24,3.92,2.97,4.77c1.73,0.85,0.04,0.89,0.04,0.89s-0.83,1,0.95,0.79c0.6-0.55,0.71-0.07,0.6,0.44l1.71,0.22
				c0,0,0.14,0.97,1.16,0.8c1.02-0.18,2.14-1.45,2.14-1.45l3.88-10.16L39.38,78.28z"/>
			<g>
				<path class="st1" d="M47.11,101.13c8.38-0.83,4.21-7.39,4.21-7.39l-12.88,0.29c0,0-2.72,0.25-2.15,4.42s5.2,2.68,5.2,2.68
					s1.04,1.16,2.79,0.99C46.03,101.96,47.11,101.13,47.11,101.13z"/>
				<line class="st2" x1="39.18" y1="94.4" x2="40.79" y2="97.29"/>
				<path class="st2" d="M38.89,97.62c0,0-0.32-2.22,0.73-2.43"/>
				<path class="st2" d="M43.27,98.12c0,0-0.04,1.9-1.78,3.01"/>
				<path class="st2" d="M48.35,98.36c0,0,0.04,1.49-1.24,2.77"/>
			</g>
			<g>
				<path class="st1" d="M71.68,95.82l4.1-2.31h3.28c0,0,3.39,0.41,2.97,3.3c0,0,0.17,1.43-1.13,2.48c0,0-0.33,1.43-2.34,1.27
					c0,0-1.65,1.65-4.1,0.17c0,0-0.28-0.39-1.29-0.22l-3.63,0.03L71.68,95.82z"/>
				<path class="st2" d="M76.8,96.64c0,0,3.55,0.83,1.76,3.91"/>
				<path class="st2" d="M77.94,95.27c0,0,1.89,0.19,2.97,4.02"/>
			</g>
			<path class="st0" d="M68.89,78.28c0,0,1.17,0.27,5.1-0.85c3.92-1.11,5.74,2.93,5.74,2.93s1.32,2.89,0.87,6.4h-0.5
				c0,0,0.74,2.89-0.74,1.98c0,0-1.24,3.92-2.97,4.77c-1.73,0.85-0.04,0.89-0.04,0.89s0.83,1-0.95,0.79
				c-0.6-0.55-0.71-0.07-0.6,0.44l-1.71,0.22c0,0-0.14,0.97-1.16,0.8c-1.02-0.18-2.14-1.45-2.14-1.45l-3.88-10.16L68.89,78.28z"/>
			<g>
				<path class="st1" d="M60.94,101.06c-8.34-1.15-3.92-7.55-3.92-7.55l12.86,0.79c0,0,2.71,0.35,1.97,4.5
					c-0.74,4.14-5.3,2.48-5.3,2.48s-1.08,1.11-2.83,0.88S60.94,101.06,60.94,101.06z"/>
				<line class="st2" x1="69.12" y1="94.64" x2="67.4" y2="97.47"/>
				<path class="st2" d="M69.28,97.87c0,0,0.41-2.21-0.63-2.46"/>
				<path class="st2" d="M64.89,98.2c0,0-0.03,1.9,1.66,3.08"/>
				<path class="st2" d="M59.81,98.25c0,0-0.1,1.48,1.13,2.81"/>
			</g>
			<path class="st0" d="M49.91,72.67c0,0,0.44,1.49-0.17,5.94c-0.61,4.46,0.22,6.44,0.33,7.1s1.87,4.62,1.52,6.94
				c-0.06,0.42-0.16,0.78-0.3,1.09c-0.6,1.39-1.87,1.74-3.26,1.83c-1.71,0.11-3.14-0.88-3.14-0.88s-0.88,0.94-1.76,0.88
				c-0.88-0.06-1.49-1.38-1.49-1.38c-1.05,0.5-1.16,0.39-2.79,0c-1.63-0.39-1.17-2.7,0-4.57c1.17-1.87,0.97-4.29,0.37-9.08
				c-1.38-12.28,1.57-16.96,1.57-16.96l24.24-2.64c0,0,5.12,5.68,4.13,14.6c-0.99,8.92-1.07,12.55,0.13,14.37
				c1.19,1.82,1.56,3.96,0,4.35c-1.56,0.39-2.38,0.44-2.88-0.39c0,0-0.39,1.67-1.32,1.72c-0.94,0.04-1.87-0.95-1.87-0.95
				s-1.38,1.24-4.29,0.95c-2.92-0.29-2.37-5.08-2.37-5.08s1.87-5.72,2.04-6.83c0.17-1.1-0.31-6.22-0.4-7.49s0-3.47,0-3.47"/>
		</g>
		<path class="st3" d="M24.11,30.62c0,0,2.91-12.43,6.16-15.28s3.19-4.17,8.72-5.03c0,0-3.36-6.02-3.71-7.87
			c-0.34-1.85,5.19,1.39,5.19,1.39s0.38-1.52,2.9-3.31s0.92,3.37,0.92,3.37s6.16-4.43,6.5-2.05c0.34,2.38-1.34,5.43-1.34,5.43
			s14.68-0.36,18.9,5.71c4.22,6.07,6.73,11.64,6.73,11.64L24.11,30.62z"/>
		<path class="st4" d="M28.67,28.93c0,0,2.73,2.01,2.17,7.8c2.45,0,38.39-1,38.39-1v-2.89c0,0-1.34-4.51,0.56-7.91
			c0,0-0.22-5.96-5.57-10.3s-12.2-0.78-12.2-0.78s-2.84,1.56-3.68,2.84c0,0-3.57-2.73-8.13-2.51c-4.57,0.22-7.97,3.28-9.36,5.34
			S28.78,24.98,28.67,28.93z"/>
		<ellipse class="st5" cx="78.04" cy="29.5" rx="9.25" ry="9.53"/>
		<ellipse class="st6" cx="22.04" cy="35.23" rx="9.16" ry="9.48"/>
		<g>
			<ellipse class="st7" cx="39.61" cy="26.51" rx="3.74" ry="3.86"/>
			<ellipse class="st8" cx="39.49" cy="27.14" rx="2.89" ry="2.81"/>
		</g>
		<g>
			<ellipse class="st7" cx="57.57" cy="24.33" rx="3.74" ry="3.86"/>
			<ellipse class="st8" cx="57.44" cy="24.97" rx="2.89" ry="2.81"/>
		</g>
		
			<ellipse transform="matrix(0.9918 -0.1274 0.1274 0.9918 -5.5089 6.9552)" class="st9" cx="51.6" cy="46.53" rx="26.8" ry="17.71"/>
		<path class="st10" d="M45.74,52.1l12.47-1.42c0,0-1.49,4.62-5.2,5.12C49.29,56.29,45.74,52.1,45.74,52.1z"/>
		<path class="st11" d="M47.6,53.82c0,0,4.29-0.99,6.61,1.16C52.97,55.55,51.73,55.88,47.6,53.82z"/>
		<path class="st10" d="M46.94,36.07c0,0,1.49,1.29,3.96-0.84c2.48-2.13,6.28-4.44,1.49-5.19s-9.08,1.24-10.82,2.72
			c-1.73,1.49,2.27,2.46,2.27,2.46L46.94,36.07z"/>
	</g>
</g>
<g id="Layer_3">
</g>
</svg>
