<?xml version="1.0" encoding="utf-8"?>
<!-- Generator: Adobe Illustrator 26.0.2, SVG Export Plug-In . SVG Version: 6.00 Build 0)  -->
<svg version="1.1" id="Layer_1" xmlns="http://www.w3.org/2000/svg" xmlns:xlink="http://www.w3.org/1999/xlink" x="0px" y="0px"
	 viewBox="0 0 278 269" style="enable-background:new 0 0 278 269;" xml:space="preserve">
<style type="text/css">
	.st0{fill:#FFC0C3;stroke:#000000;stroke-width:1.1083;stroke-miterlimit:10;}
	.st1{fill:#595959;stroke:#000000;stroke-width:1.1083;stroke-miterlimit:10;}
	.st2{fill:none;stroke:#000000;stroke-width:1.1083;stroke-miterlimit:10;}
	.st3{fill:none;stroke:#000000;stroke-width:1.3264;stroke-miterlimit:10;}
	.st4{fill:#5C5C5C;stroke:#000000;stroke-width:1.1083;stroke-miterlimit:9.9998;}
	.st5{fill:#5C5C5C;stroke:#000000;stroke-width:1.1083;stroke-miterlimit:10;}
	.st6{fill:#5C5C5C;}
	.st7{fill:none;stroke:#000000;stroke-width:1.2634;stroke-miterlimit:10;}
	.st8{stroke:#000000;stroke-width:1.1083;stroke-miterlimit:10.0004;}
	.st9{fill:none;stroke:#000000;stroke-width:1.1229;stroke-miterlimit:10;}
	.st10{fill:#FDB8B7;}
</style>
<g id="Layer_2_00000089546266552818523110000017274927494829466261_">
</g>
<g id="Layer_3">
	<g>
		<path class="st0" d="M263.79,32.84c0,0-28.19,5.5-21.59,66.81c6.61,61.31-5.32,63.88-5.32,63.88l-4.39,27.84h6.74
			c0,0,11.75-10.06,15.78-32.58s-2.22-55.81-2.22-55.81s-5.32-32.01,0.93-47.39C259.98,40.2,263.79,32.84,263.79,32.84z"/>
		<polygon class="st1" points="124.33,240.49 104.11,242.44 110.23,245.23 104.11,249.53 112.31,249.53 105,255.38 126.19,252.95 
			150.97,250.38 148.8,236.32 		"/>
		<path class="st2" d="M49.58,51.33c0,0,4.52-9.97,12.68-13.21"/>
		<line class="st3" x1="43.38" y1="52.7" x2="49.58" y2="42.82"/>
		<polygon class="st1" points="65.54,111.97 41.87,116.1 48.3,117.91 41.07,121.24 48.56,121.24 57.87,123.41 70.51,119.86 		"/>
		<polygon class="st1" points="77.56,132.85 45.99,132.01 50.47,129.75 43.51,128.07 50.74,126.34 45.06,121.24 75.39,116.19 		"/>
		
			<ellipse transform="matrix(0.6101 -0.7923 0.7923 0.6101 7.9695 103.0477)" class="st4" cx="108.69" cy="43.43" rx="37.41" ry="30.28"/>
		<path class="st5" d="M26.8,60.95l1.82-11.3c0,0,7.67,4.39,15.74,2.57s23.41-14.94,33.69-15.16s21.94-2.79,32.23,5.63
			s27.84,49.03,38.43,55.28c9.53,8.78,20.48,18.66,35.86,24.52c14.85,5.63,45,19.82,51.69,38.88c0.27,0.71,0.44,1.42,0.62,2.13
			c5.14,20.13,7.31,38.43-21.59,60.78c0,0-11.35,8.07-20.13,10.24l-44.77,9.13c0,0-14.63,2.7-33.69-5.63
			c-19.02-8.29-27.57-22.92-30.28-37.11c-0.98-14.41-2.22-35.86-5.14-47.83c-2.93-11.97-7.58-23.89-7.58-23.89l-16.58-16.09
			c0,0-20.26-15.12-27.35-35.86C28.13,69.9,26.8,60.95,26.8,60.95z"/>
		
			<ellipse transform="matrix(0.8405 -0.5419 0.5419 0.8405 -12.6202 83.0388)" class="st6" cx="134.71" cy="62.95" rx="37.28" ry="28.95"/>
		<ellipse transform="matrix(0.8405 -0.5419 0.5419 0.8405 -23.2581 25.1902)" cx="31.15" cy="52.09" rx="7.14" ry="5.23"/>
		<line class="st7" x1="44.53" y1="39.76" x2="40.1" y2="52.7"/>
		<ellipse transform="matrix(0.36 -0.933 0.933 0.36 -18.4826 102.6137)" class="st8" cx="65.55" cy="64.78" rx="6.61" ry="3.41"/>
		<path class="st9" d="M94.49,67.55c0,0,13.34-24.83,31.12-31.96c20.3-8.16,29.66-2.04,29.66-2.04s13.17,5.63,14.27,20.48
			s-9.13,25-14.81,29.88s-17.73,12.94-26.73,14.1"/>
		<path class="st10" d="M101.27,72.34c0,0,15.21,6.21,21.77,20.48c9.35-1.11,16.85,1.82,36.62-25.27c3.1-8.25,5.32-15.38-3.86-25.45
			c-9.13-10.06-34.76,1.82-34.76,1.82S102.38,56.6,101.27,72.34z"/>
		<path class="st6" d="M183.42,166.81l10.06,66.63c0,0,8.07,17.2-19.2,21.77c-27.26,4.57-38.43,6.78-47.21,4.21l4.74-3.28
			l-7.49-4.21l7.31-0.75l-5.32-4.03c0,0,8.6,1.29,13.17,0.75c4.57-0.53,10.82,0.35,6.21-13.17c-4.57-13.57-11.88-26.16-2.75-46.28
			c9.13-20.13,32.01-24.87,32.01-24.87S184,161.67,183.42,166.81z"/>
		<path class="st2" d="M193.48,233.4c0,0,8.07,17.2-19.2,21.77s-38.43,6.78-47.21,4.21l4.74-3.28l-7.49-4.21l7.31-0.75l-5.32-4.03
			c0,0,8.6,1.29,13.17,0.75c4.57-0.53,10.82,0.35,6.21-13.17c-4.57-13.57-11.88-26.16-2.75-46.28
			c9.13-20.13,32.01-24.87,32.01-24.87s8.95-1.82,8.42,3.28"/>
		<path class="st7" d="M32.87,62.94c0,0-13.79,19.42-18.66,48.1"/>
		<path class="st7" d="M36.42,64.81c0,0-8.78,24.65-9.62,36.22"/>
		<path class="st7" d="M42.89,61.13c0,0-5.5,32.72-5.01,44.55"/>
	</g>
</g>
</svg>
