<?xml version="1.0" encoding="utf-8"?>
<!-- Generator: Adobe Illustrator 26.0.2, SVG Export Plug-In . SVG Version: 6.00 Build 0)  -->
<svg version="1.1" id="Layer_1" xmlns="http://www.w3.org/2000/svg" xmlns:xlink="http://www.w3.org/1999/xlink" x="0px" y="0px"
	 viewBox="0 0 96.5 58.85" style="enable-background:new 0 0 96.5 58.85;" xml:space="preserve">
<style type="text/css">
	.st0{fill:#9EB895;}
	.st1{fill:#7EA172;}
	.st2{fill:#BED0B8;}
	.st3{fill:#FFFFFF;}
	.st4{fill:#B1DFFF;}
</style>
<g id="Layer_2_00000180357526186137504660000011366321230798756251_">
	<g>
		<path class="st0" d="M2.36,24.9c0,0-5.95,21.6,1.05,24.26c50.61,19.39,84.46,4.34,89.3,0.67c4.84-3.67,4.61-26.12,1.75-26.94
			C91.57,22.1,44.14-0.84,2.36,24.9z"/>
		<path class="st1" d="M1.6,25.16c0,0,20.17,1.02,23.15,6.44c2.97,5.42,2.1,12.48,2.1,12.48s15.45,9.13,45.86,1.14
			c0,0-0.35-12.54,3.47-15.8c4.72-4.02,18.16-6.33,18.16-6.33S41.31-1.49,1.6,25.16z"/>
		<path class="st2" d="M75.83,30.2c0,0-2.1,0.61-3.44,15.74c0,0-29.62,8.13-45.86-1.11c0,0,0.55-11.43-2.51-13.76
			S47.34,16.82,75.83,30.2z"/>
	</g>
	<g>
		<g>
			<path class="st3" d="M25.07,4.64c0.82-1.14,2.45-2.07,4.9-2.62s4.31-0.41,5.51,0.26c1.2,0.7,1.9,2.04,2.19,3.96
				c0.29,1.95-0.03,3.47-0.85,4.55c-0.82,1.11-2.3,1.81-4.43,2.3c-2.13,0.47-3.76,0.44-4.96-0.17c-1.2-0.58-2.1-1.84-2.68-3.7
				C24.17,7.32,24.25,5.8,25.07,4.64z M32.27,4.99c-0.35-0.32-0.9-0.41-1.72-0.23c-0.82,0.2-1.31,0.52-1.43,0.93
				c-0.15,0.44-0.09,1.17,0.17,2.22c0.03,0.15,0.06,0.26,0.12,0.41c0.26,1.11,0.58,1.81,0.9,2.1s0.87,0.35,1.63,0.17
				c0.76-0.17,1.2-0.44,1.37-0.82c0.15-0.38,0.12-1.11-0.09-2.16c-0.03-0.17-0.09-0.38-0.12-0.55C32.88,6.01,32.62,5.31,32.27,4.99z
				"/>
			<path class="st3" d="M51.66,0.03c-1.08,3.64-2.01,7.32-2.86,10.99c-2.22,0.03-4.43,0.15-6.65,0.38
				c-1.28-3.56-2.71-7.08-4.26-10.58c1.78-0.23,3.59-0.41,5.39-0.55c0.7,2.36,1.34,4.72,1.95,7.11c0.15,0,0.29-0.03,0.44-0.03
				c0.23-2.42,0.5-4.84,0.82-7.26C48.22,0,49.94-0.03,51.66,0.03z"/>
			<path class="st3" d="M61.28,11.81c-2.8-0.41-5.6-0.64-8.43-0.76c0.12-3.67,0.26-7.32,0.38-10.99c3.29,0.12,6.59,0.41,9.85,0.87
				c-0.23,0.87-0.44,1.75-0.67,2.65c-1.52-0.2-3.03-0.38-4.55-0.52c-0.06,0.55-0.09,1.11-0.15,1.63c1.28,0.12,2.59,0.26,3.88,0.44
				c-0.12,0.79-0.2,1.55-0.32,2.33c-1.25-0.17-2.51-0.32-3.76-0.41c-0.06,0.61-0.12,1.22-0.17,1.81c1.52,0.15,3,0.32,4.52,0.52
				C61.69,10.18,61.48,10.99,61.28,11.81z"/>
			<path class="st3" d="M75.62,7.32c-0.17,0.61-0.5,1.11-0.9,1.43C74.31,9.07,73.73,9.33,73,9.48c0.29,1.69,0.55,3.41,0.76,5.1
				c-1.49-0.47-3-0.87-4.52-1.25c-0.2-1.4-0.41-2.83-0.64-4.23c-0.2-0.06-0.41-0.09-0.58-0.15c-0.29,1.28-0.55,2.59-0.85,3.88
				c-1.37-0.29-2.77-0.55-4.17-0.79c0.58-3.62,1.2-7.23,1.78-10.87c2.19,0.35,4.37,0.79,6.53,1.31c1.87,0.44,3.15,1.11,3.85,1.87
				C75.83,5.16,76,6.15,75.62,7.32z M70.11,7.29c0.23-0.12,0.41-0.41,0.52-0.87c0.12-0.47,0.09-0.79-0.06-1.02
				c-0.15-0.23-0.47-0.38-0.9-0.5c-0.23-0.06-0.5-0.12-0.73-0.17c-0.17,0.82-0.35,1.6-0.52,2.42c0.23,0.06,0.47,0.09,0.67,0.15
				C69.53,7.41,69.88,7.41,70.11,7.29z"/>
			<path class="st3" d="M24.22,34.66c0.87,1.95,0.17,3.38-1.95,4.49c-1.37,0.73-2.74,1.52-4.05,2.36c-1.95-3.09-3.94-6.18-5.89-9.3
				c1.55-0.99,3.12-1.9,4.72-2.74c1.25-0.67,2.33-0.93,3.12-0.82c0.82,0.12,1.43,0.64,1.84,1.55c0.41,0.9,0.26,1.78-0.35,2.68
				c0.03,0.03,0.03,0.06,0.06,0.09C22.8,32.83,23.64,33.41,24.22,34.66z M19.06,33.44c0.03-0.2-0.06-0.5-0.23-0.87
				c-0.2-0.38-0.38-0.61-0.58-0.7c-0.23-0.06-0.47-0.03-0.76,0.12c-0.2,0.12-0.41,0.23-0.61,0.35c0.38,0.67,0.73,1.31,1.11,1.98
				c0.2-0.12,0.41-0.23,0.61-0.35C18.86,33.82,19.04,33.64,19.06,33.44z M21.22,37.2c0.06-0.2-0.06-0.52-0.29-0.96
				c-0.23-0.44-0.47-0.73-0.7-0.85c-0.23-0.12-0.52-0.09-0.87,0.12c-0.2,0.12-0.38,0.2-0.58,0.32c0.44,0.76,0.85,1.52,1.28,2.27
				c0.17-0.12,0.38-0.2,0.55-0.29C20.99,37.58,21.16,37.41,21.22,37.2z"/>
			<path class="st3" d="M32.04,27.2c0.17,0.64,0.2,1.2,0.12,1.69c-0.12,0.5-0.35,0.96-0.7,1.46c0.99,1.34,1.92,2.68,2.86,4.05
				c-1.11,0.29-2.22,0.64-3.29,1.02c-0.79-1.14-1.6-2.24-2.45-3.35c-0.15,0.06-0.29,0.12-0.44,0.15c0.47,1.25,0.9,2.48,1.37,3.73
				c-0.99,0.35-1.98,0.76-2.94,1.17c-1.46-3.38-2.89-6.73-4.34-10.12c1.6-0.67,3.21-1.31,4.84-1.87c1.4-0.5,2.54-0.52,3.32-0.2
				C31.13,25.28,31.69,26.04,32.04,27.2z M28.6,29.77c0.09-0.2,0.06-0.55-0.09-0.99c-0.17-0.44-0.35-0.73-0.55-0.85
				c-0.2-0.12-0.5-0.12-0.82,0c-0.17,0.06-0.38,0.15-0.55,0.2c0.29,0.79,0.58,1.55,0.85,2.33c0.17-0.06,0.32-0.12,0.5-0.17
				C28.28,30.15,28.51,30,28.6,29.77z"/>
			<path class="st3" d="M41.43,32.89c-2.07,0.29-4.11,0.7-6.12,1.22c-0.9-3.56-1.81-7.11-2.71-10.67c2.48-0.64,4.96-1.14,7.49-1.49
				c0.06,0.9,0.12,1.81,0.17,2.71c-1.17,0.17-2.3,0.38-3.44,0.58c0.12,0.52,0.2,1.08,0.32,1.6c0.96-0.2,1.92-0.35,2.92-0.52
				c0.12,0.76,0.23,1.55,0.35,2.3c-0.93,0.15-1.87,0.32-2.8,0.5c0.12,0.58,0.23,1.2,0.35,1.78c1.11-0.23,2.22-0.41,3.35-0.58
				C41.31,31.22,41.37,32.07,41.43,32.89z"/>
			<path class="st3" d="M48.86,32.27c-2.07,0.03-4.14,0.17-6.21,0.44c-0.47-3.64-0.9-7.29-1.37-10.93c2.51-0.32,5.04-0.5,7.58-0.52
				c-0.06,0.9-0.12,1.81-0.17,2.71c-1.17,0.03-2.33,0.09-3.47,0.15c0.03,0.55,0.09,1.11,0.12,1.63c0.99-0.06,1.95-0.12,2.94-0.15
				c0.03,0.79,0.03,1.55,0.06,2.33c-0.93,0.03-1.9,0.06-2.83,0.15c0.03,0.61,0.09,1.22,0.12,1.81c1.14-0.09,2.24-0.12,3.38-0.15
				C48.98,30.61,48.92,31.46,48.86,32.27z"/>
			<path class="st3" d="M59.5,27.23c-0.58,3.79-2.45,5.39-5.57,5.16c-1.28-0.09-2.54-0.12-3.82-0.15c0-3.67,0.03-7.35,0.03-10.99
				c1.55,0,3.06,0.06,4.61,0.17c2.01,0.15,3.38,0.76,4.08,1.78C59.56,24.2,59.76,25.54,59.5,27.23z M55.45,29.3
				c0.23-0.44,0.41-1.17,0.5-2.19c0.09-1.05,0.06-1.78-0.15-2.24c-0.2-0.47-0.67-0.73-1.43-0.76c-0.2,0-0.41-0.03-0.64-0.03
				c-0.12,1.92-0.2,3.85-0.32,5.77c0.2,0,0.44,0.03,0.64,0.03C54.75,29.91,55.19,29.71,55.45,29.3z"/>
			<path class="st3" d="M63.12,33.73c-1.02-0.23-2.07-0.44-3.09-0.61c0.61-3.62,1.25-7.23,1.87-10.85c1.22,0.2,2.45,0.47,3.67,0.73
				C64.75,26.59,63.93,30.18,63.12,33.73z"/>
			<path class="st3" d="M72.94,36.88c-0.96-0.41-1.9-0.76-2.89-1.11c-0.17-1.87-0.44-3.76-0.76-5.66c-0.06-0.03-0.12-0.03-0.15-0.06
				c-0.5,1.63-1.02,3.27-1.52,4.9c-0.9-0.29-1.81-0.55-2.74-0.79c0.93-3.56,1.84-7.11,2.77-10.64c1.2,0.32,2.42,0.67,3.59,1.05
				c0.32,1.95,0.61,3.91,0.79,5.83c0.06,0.03,0.12,0.03,0.15,0.06c0.61-1.66,1.2-3.29,1.81-4.96c1.08,0.38,2.13,0.82,3.18,1.25
				C75.77,30.12,74.37,33.5,72.94,36.88z"/>
			<path class="st3" d="M84.78,34.29c-1.02-1.02-1.84-1.66-2.39-1.98c-0.55-0.32-1.08-0.32-1.49,0c-0.44,0.29-0.87,0.9-1.31,1.78
				c-0.47,0.87-0.7,1.57-0.73,2.07c-0.03,0.5,0.23,0.9,0.79,1.2c0.17,0.09,0.5,0.23,1.02,0.41c0.23-0.38,0.44-0.79,0.67-1.17
				c-0.26-0.15-0.52-0.29-0.79-0.44c0.35-0.61,0.67-1.22,1.02-1.84c1.17,0.64,2.33,1.34,3.47,2.07c-1.08,1.72-2.16,3.41-3.27,5.13
				c-0.64-0.41-1.28-0.79-1.92-1.17c0-0.2,0-0.44,0.03-0.64c-0.03,0-0.06-0.03-0.06-0.03c-0.26,0.03-0.5,0.06-0.64,0.06
				c-0.44,0.03-0.93-0.09-1.49-0.41c-2.33-1.22-2.77-3.41-1.28-6.85c0.76-1.69,1.69-2.86,2.86-3.41c1.14-0.55,2.62-0.41,4.37,0.55
				c1.37,0.76,2.45,1.6,3.24,2.54C86.12,32.86,85.45,33.56,84.78,34.29z"/>
		</g>
	</g>
	<g>
		<g>
			<path class="st4" d="M23.67,4.84c0.79-1.14,2.42-2.04,4.84-2.59c2.42-0.52,4.26-0.41,5.42,0.26c1.17,0.67,1.9,2.01,2.16,3.94
				s-0.03,3.41-0.85,4.49c-0.82,1.08-2.27,1.81-4.37,2.27c-2.07,0.47-3.7,0.44-4.87-0.17c-1.2-0.61-2.07-1.84-2.65-3.7
				C22.77,7.49,22.85,5.98,23.67,4.84z M30.78,5.19c-0.32-0.32-0.9-0.41-1.72-0.2c-0.79,0.15-1.25,0.47-1.4,0.87
				c-0.15,0.44-0.09,1.17,0.17,2.19c0.03,0.15,0.06,0.29,0.09,0.41c0.26,1.11,0.58,1.78,0.9,2.07c0.32,0.29,0.85,0.35,1.6,0.17
				c0.73-0.17,1.2-0.44,1.34-0.82s0.12-1.08-0.09-2.13c-0.03-0.17-0.09-0.38-0.12-0.55C31.37,6.18,31.1,5.51,30.78,5.19z"/>
			<path class="st4" d="M49.91,0.26c-1.05,3.62-1.98,7.23-2.8,10.87c-2.19,0.03-4.37,0.15-6.56,0.38c-1.28-3.53-2.68-7-4.2-10.47
				c1.78-0.23,3.53-0.41,5.31-0.55c0.67,2.33,1.31,4.66,1.92,7.03c0.15,0,0.29-0.03,0.44-0.03c0.23-2.39,0.5-4.78,0.79-7.17
				C46.53,0.26,48.22,0.23,49.91,0.26z"/>
			<path class="st4" d="M59.44,11.9c-2.77-0.38-5.54-0.64-8.34-0.73c0.12-3.62,0.26-7.23,0.38-10.87c3.27,0.12,6.5,0.41,9.74,0.87
				c-0.23,0.87-0.44,1.75-0.64,2.62c-1.49-0.2-3-0.38-4.49-0.52C56.03,3.82,56,4.34,55.94,4.9c1.28,0.12,2.57,0.26,3.82,0.44
				c-0.12,0.76-0.2,1.52-0.32,2.3c-1.25-0.17-2.48-0.29-3.73-0.41c-0.06,0.61-0.12,1.2-0.17,1.81c1.49,0.15,2.97,0.32,4.46,0.52
				C59.82,10.32,59.62,11.11,59.44,11.9z"/>
			<path class="st4" d="M73.61,7.46c-0.2,0.61-0.5,1.11-0.9,1.43c-0.41,0.32-0.99,0.55-1.69,0.73c0.29,1.69,0.55,3.35,0.76,5.04
				c-1.49-0.47-2.97-0.87-4.46-1.22c-0.2-1.4-0.41-2.8-0.64-4.17c-0.2-0.06-0.38-0.09-0.58-0.12c-0.29,1.28-0.55,2.57-0.85,3.82
				c-1.37-0.29-2.74-0.55-4.11-0.79c0.58-3.59,1.17-7.14,1.75-10.73c2.16,0.35,4.31,0.79,6.44,1.28c1.84,0.44,3.12,1.08,3.82,1.87
				C73.79,5.37,73.96,6.33,73.61,7.46z M68.16,7.44c0.23-0.12,0.41-0.41,0.52-0.85c0.12-0.44,0.09-0.79-0.06-1.02
				c-0.15-0.23-0.47-0.38-0.9-0.5c-0.23-0.06-0.5-0.12-0.73-0.17c-0.17,0.79-0.35,1.6-0.52,2.39c0.23,0.06,0.47,0.09,0.67,0.15
				C67.58,7.58,67.93,7.55,68.16,7.44z"/>
			<path class="st4" d="M22.83,34.46c0.85,1.92,0.17,3.32-1.95,4.43c-1.37,0.73-2.68,1.49-4.02,2.33c-1.95-3.06-3.88-6.12-5.83-9.18
				c1.52-0.96,3.09-1.87,4.66-2.71c1.25-0.64,2.3-0.87,3.12-0.76s1.4,0.64,1.81,1.52c0.41,0.9,0.26,1.78-0.35,2.65
				c0.03,0.03,0.03,0.06,0.06,0.09C21.43,32.68,22.27,33.24,22.83,34.46z M17.72,33.27c0.03-0.2-0.03-0.5-0.23-0.85
				c-0.2-0.38-0.38-0.58-0.58-0.67c-0.2-0.09-0.44-0.06-0.73,0.12c-0.2,0.09-0.41,0.2-0.61,0.32c0.35,0.64,0.73,1.31,1.08,1.95
				c0.2-0.12,0.41-0.23,0.61-0.32C17.55,33.64,17.69,33.47,17.72,33.27z M19.85,37c0.06-0.2-0.03-0.52-0.26-0.96
				c-0.23-0.44-0.47-0.73-0.67-0.82c-0.23-0.12-0.52-0.09-0.85,0.12c-0.2,0.09-0.41,0.17-0.58,0.29c0.41,0.76,0.85,1.49,1.25,2.24
				c0.17-0.09,0.35-0.2,0.55-0.29C19.62,37.38,19.82,37.17,19.85,37z"/>
			<path class="st4" d="M30.52,27.11c0.17,0.64,0.2,1.2,0.12,1.66c-0.12,0.47-0.32,0.96-0.7,1.43c0.96,1.31,1.92,2.65,2.8,3.99
				c-1.11,0.29-2.19,0.64-3.27,0.99c-0.79-1.11-1.57-2.22-2.42-3.29c-0.15,0.06-0.29,0.12-0.44,0.15c0.44,1.22,0.9,2.45,1.34,3.67
				c-0.96,0.35-1.95,0.76-2.92,1.17c-1.43-3.32-2.86-6.65-4.29-9.97c1.6-0.67,3.21-1.28,4.81-1.84c1.4-0.5,2.51-0.52,3.29-0.2
				C29.65,25.22,30.2,25.98,30.52,27.11z M27.14,29.65c0.09-0.2,0.06-0.55-0.09-0.96c-0.17-0.44-0.35-0.73-0.55-0.85
				c-0.2-0.12-0.47-0.12-0.82,0c-0.17,0.06-0.35,0.12-0.52,0.17c0.29,0.76,0.55,1.55,0.85,2.3c0.17-0.06,0.32-0.12,0.5-0.17
				C26.85,30.03,27.05,29.85,27.14,29.65z"/>
			<path class="st4" d="M39.79,32.74c-2.04,0.29-4.05,0.7-6.06,1.22c-0.9-3.5-1.81-7.03-2.68-10.52c2.45-0.61,4.9-1.11,7.38-1.46
				c0.06,0.9,0.12,1.78,0.17,2.68c-1.14,0.17-2.27,0.35-3.41,0.58c0.12,0.52,0.2,1.05,0.32,1.6c0.96-0.2,1.92-0.35,2.89-0.5
				c0.12,0.76,0.23,1.52,0.35,2.27c-0.93,0.15-1.87,0.29-2.77,0.5c0.12,0.58,0.23,1.17,0.35,1.78c1.11-0.2,2.19-0.41,3.29-0.55
				C39.71,31.11,39.73,31.92,39.79,32.74z"/>
			<path class="st4" d="M47.17,32.13c-2.04,0.03-4.11,0.17-6.12,0.44c-0.44-3.59-0.9-7.2-1.34-10.79c2.48-0.32,4.99-0.5,7.49-0.52
				c-0.06,0.9-0.12,1.78-0.17,2.68c-1.14,0.03-2.3,0.06-3.44,0.15c0.03,0.55,0.09,1.08,0.12,1.63c0.96-0.06,1.92-0.12,2.92-0.15
				c0,0.79,0.03,1.55,0.06,2.33c-0.93,0.03-1.87,0.06-2.8,0.15c0.03,0.61,0.09,1.2,0.12,1.81c1.11-0.09,2.22-0.12,3.32-0.15
				C47.26,30.5,47.23,31.31,47.17,32.13z"/>
			<path class="st4" d="M57.66,27.14c-0.58,3.76-2.42,5.34-5.48,5.1c-1.25-0.09-2.51-0.12-3.76-0.12c0-3.62,0.03-7.26,0.03-10.87
				c1.52,0,3.03,0.06,4.55,0.17c1.98,0.15,3.32,0.76,4.02,1.75C57.72,24.14,57.93,25.48,57.66,27.14z M53.64,29.18
				c0.23-0.41,0.41-1.14,0.5-2.16c0.09-1.02,0.06-1.78-0.15-2.22c-0.2-0.44-0.67-0.7-1.4-0.76c-0.2,0-0.41-0.03-0.64-0.03
				c-0.12,1.9-0.2,3.79-0.32,5.69c0.2,0,0.41,0.03,0.64,0.03C52.97,29.77,53.41,29.59,53.64,29.18z"/>
			<path class="st4" d="M61.25,33.59c-1.02-0.23-2.04-0.44-3.06-0.61c0.61-3.56,1.22-7.14,1.84-10.7c1.22,0.2,2.42,0.44,3.64,0.73
				C62.85,26.5,62.04,30.06,61.25,33.59z"/>
			<path class="st4" d="M70.93,36.68c-0.93-0.41-1.9-0.76-2.83-1.11c-0.17-1.87-0.44-3.73-0.76-5.6c-0.06-0.03-0.09-0.03-0.15-0.06
				c-0.5,1.6-0.99,3.21-1.52,4.84c-0.9-0.29-1.81-0.52-2.71-0.76c0.9-3.5,1.84-7.03,2.74-10.52c1.2,0.32,2.39,0.64,3.56,1.02
				c0.32,1.92,0.58,3.85,0.79,5.77c0.06,0.03,0.09,0.03,0.15,0.06c0.58-1.63,1.2-3.27,1.78-4.9c1.05,0.38,2.1,0.79,3.15,1.22
				C73.76,30,72.33,33.35,70.93,36.68z"/>
			<path class="st4" d="M82.62,34.11c-0.99-0.99-1.81-1.63-2.36-1.95c-0.55-0.32-1.05-0.32-1.46,0c-0.41,0.29-0.85,0.87-1.31,1.75
				c-0.44,0.87-0.7,1.57-0.7,2.07c-0.03,0.5,0.23,0.87,0.79,1.2c0.15,0.09,0.5,0.2,0.99,0.41c0.23-0.38,0.44-0.76,0.67-1.17
				c-0.26-0.15-0.52-0.29-0.79-0.44c0.32-0.61,0.67-1.2,0.99-1.81c1.17,0.64,2.3,1.31,3.44,2.04c-1.08,1.69-2.16,3.38-3.21,5.07
				c-0.64-0.41-1.28-0.79-1.92-1.17c0-0.2,0-0.44,0.03-0.64c-0.03,0-0.06-0.03-0.06-0.03c-0.26,0.03-0.47,0.06-0.64,0.06
				c-0.44,0.03-0.93-0.09-1.49-0.38c-2.27-1.2-2.74-3.38-1.25-6.76c0.76-1.69,1.66-2.83,2.8-3.35c1.14-0.55,2.59-0.38,4.31,0.52
				c1.37,0.73,2.42,1.6,3.18,2.51C83.96,32.68,83.29,33.38,82.62,34.11z"/>
		</g>
	</g>
</g>
<g id="Layer_3">
</g>
</svg>
