<svg width="179" height="160" viewBox="0 0 179 160" fill="none" xmlns="http://www.w3.org/2000/svg">
<ellipse cx="79.5" cy="80" rx="79.5" ry="80" fill="#AF8D86"/>
<circle cx="79" cy="80" r="64" fill="#AFDDFF"/>
<path d="M81.9857 82.045L122.258 17.1517L156.923 67.3033L81.9857 82.045Z" fill="#AF8D86"/>
<path d="M28.829 100.7C28.829 97.8033 30.0023 95.5117 32.349 93.825C34.6957 92.1383 37.904 91.295 41.974 91.295C46.0807 91.295 49.289 92.1017 51.599 93.715C53.909 95.3283 55.064 97.5833 55.064 100.48C55.064 102.497 54.7523 104.11 54.129 105.32C53.5057 106.493 52.424 107.593 50.884 108.62V108.84C53.964 110.307 55.504 112.727 55.504 116.1C55.504 119.473 54.349 122.058 52.039 123.855C49.729 125.652 46.429 126.55 42.139 126.55C37.849 126.55 34.494 125.688 32.074 123.965C29.6907 122.242 28.499 119.748 28.499 116.485C28.499 114.578 28.8657 113.057 29.599 111.92C30.369 110.783 31.5423 109.848 33.119 109.115V108.895C31.6157 107.868 30.5157 106.732 29.819 105.485C29.159 104.238 28.829 102.643 28.829 100.7ZM42.084 118.795C43.5873 118.795 44.339 118.043 44.339 116.54C44.339 115.807 44.119 115.202 43.679 114.725C43.239 114.212 42.4873 113.625 41.424 112.965C40.214 113.918 39.609 114.89 39.609 115.88C39.609 117.823 40.434 118.795 42.084 118.795ZM42.194 99.655C40.6907 99.655 39.939 100.352 39.939 101.745C39.939 102.478 40.1407 103.065 40.544 103.505C40.9473 103.945 41.6257 104.477 42.579 105.1C43.9357 104.037 44.614 103.047 44.614 102.13C44.614 100.48 43.8073 99.655 42.194 99.655ZM81.3295 114.34C81.3295 122.48 77.1678 126.55 68.8445 126.55C64.9212 126.55 61.2728 125.982 57.8995 124.845L58.7795 115.44C63.7295 116.723 66.6995 117.365 67.6895 117.365C68.7162 117.365 69.3945 117.163 69.7245 116.76C70.0545 116.357 70.2195 115.733 70.2195 114.89C70.2195 113.313 69.6878 112.525 68.6245 112.525C68.0745 112.525 67.6528 112.818 67.3595 113.405L57.9545 112.305V92.12H79.6795V100.865H68.6795V104.44C69.6695 104.147 70.7878 104 72.0345 104C78.2312 104 81.3295 107.447 81.3295 114.34ZM117.282 91.845L106.337 126H98.2519L109.142 91.845H117.282ZM94.7869 104.055V101.69C94.7869 100.443 94.7136 99.655 94.5669 99.325C94.4569 98.995 94.3102 98.6467 94.1269 98.28C93.9802 97.9133 93.6136 97.73 93.0269 97.73C92.4769 97.73 92.0736 97.84 91.8169 98.06C91.3036 98.4267 91.0469 100.187 91.0469 103.34V104.055C91.0469 106.292 91.1202 107.777 91.2669 108.51C91.4136 109.243 91.6152 109.72 91.8719 109.94C92.1652 110.16 92.5502 110.27 93.0269 110.27C93.8336 110.27 94.3286 109.848 94.5119 109.005C94.6952 108.125 94.7869 106.475 94.7869 104.055ZM92.9169 91.295C96.6936 91.295 99.2236 92.285 100.507 94.265C101.827 96.245 102.487 99.3983 102.487 103.725C102.487 108.015 101.827 111.132 100.507 113.075C99.2236 115.018 96.6936 115.99 92.9169 115.99C89.1769 115.99 86.6286 115.018 85.2719 113.075C83.9519 111.095 83.2919 107.978 83.2919 103.725C83.2919 99.435 83.9519 96.3 85.2719 94.32C86.5919 92.3033 89.1402 91.295 92.9169 91.295ZM124.487 114.615V112.25C124.487 111.003 124.414 110.215 124.267 109.885C124.157 109.555 124.01 109.207 123.827 108.84C123.68 108.473 123.314 108.29 122.727 108.29C122.177 108.29 121.774 108.4 121.517 108.62C121.004 108.987 120.747 110.747 120.747 113.9V114.615C120.747 116.852 120.82 118.337 120.967 119.07C121.114 119.803 121.315 120.28 121.572 120.5C121.865 120.72 122.25 120.83 122.727 120.83C123.534 120.83 124.029 120.408 124.212 119.565C124.395 118.685 124.487 117.035 124.487 114.615ZM122.617 101.855C126.394 101.855 128.924 102.845 130.207 104.825C131.527 106.805 132.187 109.958 132.187 114.285C132.187 118.575 131.527 121.692 130.207 123.635C128.924 125.578 126.394 126.55 122.617 126.55C118.877 126.55 116.329 125.578 114.972 123.635C113.652 121.655 112.992 118.538 112.992 114.285C112.992 109.995 113.652 106.86 114.972 104.88C116.292 102.863 118.84 101.855 122.617 101.855Z" fill="#AF8D86"/>
<path d="M32.349 93.825L34.6835 97.0731L32.349 93.825ZM51.599 93.715L49.3086 96.9944L49.3087 96.9944L51.599 93.715ZM54.129 105.32L57.6615 107.197L57.6733 107.174L57.6849 107.152L54.129 105.32ZM50.884 108.62L48.6652 105.292L46.884 106.479V108.62H50.884ZM50.884 108.84H46.884V111.366L49.1643 112.451L50.884 108.84ZM52.039 123.855L54.4948 127.012H54.4948L52.039 123.855ZM32.074 123.965L29.7302 127.206L29.7419 127.215L29.7537 127.223L32.074 123.965ZM29.599 111.92L26.2873 109.677L26.2622 109.714L26.2378 109.751L29.599 111.92ZM33.119 109.115L34.8059 112.742L37.119 111.666V109.115H33.119ZM33.119 108.895H37.119V106.783L35.3749 105.592L33.119 108.895ZM29.819 105.485L26.2839 107.357L26.3051 107.397L26.3272 107.436L29.819 105.485ZM43.679 114.725L40.642 117.328L40.6899 117.384L40.7398 117.438L43.679 114.725ZM41.424 112.965L43.5335 109.566L41.151 108.088L38.9485 109.823L41.424 112.965ZM40.544 103.505L37.5954 106.208L37.5954 106.208L40.544 103.505ZM42.579 105.1L40.39 108.448L42.7898 110.017L45.0465 108.248L42.579 105.1ZM32.829 100.7C32.829 99.0874 33.3854 98.0061 34.6835 97.0731L30.0145 90.5769C26.6193 93.0172 24.829 96.5193 24.829 100.7H32.829ZM34.6835 97.0731C36.1229 96.0385 38.4103 95.295 41.974 95.295V87.295C37.3977 87.295 33.2685 88.2381 30.0145 90.5769L34.6835 97.0731ZM41.974 95.295C45.6188 95.295 47.9134 96.0199 49.3086 96.9944L53.8894 90.4356C50.6646 88.1834 46.5426 87.295 41.974 87.295V95.295ZM49.3087 96.9944C50.512 97.8348 51.064 98.8464 51.064 100.48H59.064C59.064 96.3202 57.306 92.8219 53.8894 90.4356L49.3087 96.9944ZM51.064 100.48C51.064 102.142 50.7979 103.052 50.5731 103.488L57.6849 107.152C58.7067 105.168 59.064 102.851 59.064 100.48H51.064ZM50.5965 103.443C50.3822 103.847 49.859 104.496 48.6652 105.292L53.1028 111.948C54.989 110.691 56.6291 109.14 57.6615 107.197L50.5965 103.443ZM46.884 108.62V108.84H54.884V108.62H46.884ZM49.1643 112.451C50.1559 112.924 50.6784 113.437 50.9744 113.903C51.2686 114.365 51.504 115.038 51.504 116.1H59.504C59.504 113.789 58.9695 111.565 57.7237 109.607C56.4796 107.653 54.6921 106.223 52.6037 105.229L49.1643 112.451ZM51.504 116.1C51.504 118.452 50.7622 119.781 49.5832 120.698L54.4948 127.012C57.9358 124.336 59.504 120.495 59.504 116.1H51.504ZM49.5832 120.698C48.2361 121.745 45.9387 122.55 42.139 122.55V130.55C46.9193 130.55 51.2219 129.558 54.4948 127.012L49.5832 120.698ZM42.139 122.55C38.3266 122.55 35.8964 121.776 34.3943 120.707L29.7537 127.223C33.0917 129.6 37.3714 130.55 42.139 130.55V122.55ZM34.4178 120.724C33.2 119.843 32.499 118.628 32.499 116.485H24.499C24.499 120.869 26.1813 124.64 29.7302 127.206L34.4178 120.724ZM32.499 116.485C32.499 115.046 32.7818 114.365 32.9602 114.089L26.2378 109.751C24.9495 111.748 24.499 114.111 24.499 116.485H32.499ZM32.9107 114.163C33.1793 113.767 33.7133 113.25 34.8059 112.742L31.4321 105.488C29.3714 106.447 27.5587 107.8 26.2873 109.677L32.9107 114.163ZM37.119 109.115V108.895H29.119V109.115H37.119ZM35.3749 105.592C34.2463 104.821 33.6343 104.113 33.3108 103.534L26.3272 107.436C27.3971 109.351 28.9851 110.916 30.8632 112.198L35.3749 105.592ZM33.3542 103.613C33.0927 103.12 32.829 102.225 32.829 100.7H24.829C24.829 103.062 25.2253 105.357 26.2839 107.357L33.3542 103.613ZM42.084 122.795C43.4522 122.795 45.2131 122.45 46.6037 121.06C47.9942 119.669 48.339 117.908 48.339 116.54H40.339C40.339 116.675 40.3079 116.042 40.9468 115.403C41.5857 114.764 42.2191 114.795 42.084 114.795V122.795ZM48.339 116.54C48.339 114.942 47.8304 113.325 46.6182 112.012L40.7398 117.438C40.6027 117.29 40.4876 117.103 40.4148 116.903C40.345 116.711 40.339 116.575 40.339 116.54H48.339ZM46.716 112.122C45.8717 111.137 44.7021 110.292 43.5335 109.566L39.3146 116.364C39.7598 116.64 40.0896 116.87 40.3242 117.053C40.5683 117.244 40.6495 117.337 40.642 117.328L46.716 112.122ZM38.9485 109.823C37.3176 111.108 35.609 113.11 35.609 115.88H43.609C43.609 116.047 43.5826 116.197 43.5448 116.32C43.5081 116.439 43.4684 116.507 43.4583 116.523C43.4495 116.537 43.4682 116.504 43.5403 116.427C43.6124 116.351 43.7271 116.243 43.8995 116.107L38.9485 109.823ZM35.609 115.88C35.609 117.323 35.9014 119.151 37.1786 120.655C38.5621 122.285 40.4555 122.795 42.084 122.795V114.795C42.0553 114.795 42.2093 114.79 42.4629 114.889C42.7409 114.999 43.0372 115.195 43.2769 115.477C43.7291 116.01 43.609 116.38 43.609 115.88H35.609ZM42.194 95.655C40.898 95.655 39.1807 95.949 37.7837 97.2438C36.3294 98.5917 35.939 100.35 35.939 101.745H43.939C43.939 101.746 43.9245 102.46 43.2218 103.111C42.5765 103.709 41.9866 103.655 42.194 103.655V95.655ZM35.939 101.745C35.939 103.239 36.3696 104.871 37.5954 106.208L43.4926 100.802C43.6771 101.003 43.8023 101.229 43.873 101.435C43.9061 101.531 43.9227 101.609 43.9309 101.663C43.935 101.69 43.937 101.711 43.938 101.724C43.9385 101.731 43.9388 101.736 43.9389 101.74C43.9389 101.742 43.939 101.743 43.939 101.744C43.939 101.744 43.939 101.744 43.939 101.745C43.939 101.745 43.939 101.745 43.939 101.745C43.939 101.745 43.939 101.745 43.939 101.745C43.939 101.745 43.939 101.745 43.939 101.745H35.939ZM37.5954 106.208C38.3441 107.025 39.3613 107.775 40.39 108.448L44.768 101.752C44.3586 101.484 44.0488 101.263 43.8228 101.086C43.7111 100.998 43.629 100.928 43.5711 100.877C43.5123 100.824 43.4897 100.799 43.4926 100.802L37.5954 106.208ZM45.0465 108.248C46.5791 107.047 48.614 105.016 48.614 102.13H40.614C40.614 101.565 40.8281 101.266 40.8055 101.299C40.796 101.313 40.7464 101.381 40.6282 101.501C40.5111 101.619 40.3435 101.77 40.1115 101.952L45.0465 108.248ZM48.614 102.13C48.614 100.711 48.2673 98.9073 46.869 97.4773C45.4545 96.0306 43.6403 95.655 42.194 95.655V103.655C42.361 103.655 41.7568 103.692 41.149 103.07C40.5574 102.465 40.614 101.899 40.614 102.13H48.614ZM57.8995 124.845L53.9169 124.472L53.622 127.625L56.6222 128.636L57.8995 124.845ZM58.7795 115.44L59.7834 111.568L55.2347 110.389L54.7969 115.067L58.7795 115.44ZM69.7245 116.76L66.6287 114.227L66.6287 114.227L69.7245 116.76ZM67.3595 113.405L66.8948 117.378L69.6822 117.704L70.9372 115.194L67.3595 113.405ZM57.9545 112.305H53.9545V115.864L57.4898 116.278L57.9545 112.305ZM57.9545 92.12V88.12H53.9545V92.12H57.9545ZM79.6795 92.12H83.6795V88.12H79.6795V92.12ZM79.6795 100.865V104.865H83.6795V100.865H79.6795ZM68.6795 100.865V96.865H64.6795V100.865H68.6795ZM68.6795 104.44H64.6795V109.797L69.8159 108.275L68.6795 104.44ZM77.3295 114.34C77.3295 117.771 76.4584 119.614 75.4115 120.638C74.3482 121.678 72.4117 122.55 68.8445 122.55V130.55C73.6007 130.55 77.9067 129.387 81.005 126.357C84.1198 123.311 85.3295 119.049 85.3295 114.34H77.3295ZM68.8445 122.55C65.3114 122.55 62.0987 122.039 59.1768 121.054L56.6222 128.636C60.447 129.924 64.531 130.55 68.8445 130.55V122.55ZM61.8821 125.218L62.7621 115.813L54.7969 115.067L53.9169 124.472L61.8821 125.218ZM57.7757 119.312C60.2731 119.959 62.3128 120.456 63.8748 120.794C65.2809 121.097 66.6936 121.365 67.6895 121.365V113.365C67.6954 113.365 67.1282 113.312 65.5642 112.974C64.1562 112.67 62.2359 112.204 59.7834 111.568L57.7757 119.312ZM67.6895 121.365C68.8666 121.365 71.2518 121.21 72.8203 119.293L66.6287 114.227C67.1228 113.623 67.6681 113.427 67.8284 113.38C67.9847 113.333 67.9743 113.365 67.6895 113.365V121.365ZM72.8203 119.293C74.0008 117.85 74.2195 116.125 74.2195 114.89H66.2195C66.2195 115.066 66.2007 115.073 66.2289 114.966C66.2589 114.853 66.3566 114.56 66.6287 114.227L72.8203 119.293ZM74.2195 114.89C74.2195 113.778 74.0548 112.24 73.1371 110.88C72.0302 109.239 70.3017 108.525 68.6245 108.525V116.525C68.3945 116.525 67.9992 116.481 67.55 116.259C67.0833 116.028 66.7325 115.691 66.5045 115.353C66.1184 114.78 66.2195 114.426 66.2195 114.89H74.2195ZM68.6245 108.525C67.5937 108.525 66.5411 108.815 65.6115 109.461C64.7197 110.082 64.1468 110.886 63.7818 111.616L70.9372 115.194C70.8655 115.337 70.6501 115.702 70.18 116.029C69.6721 116.382 69.1053 116.525 68.6245 116.525V108.525ZM67.8242 109.432L58.4192 108.332L57.4898 116.278L66.8948 117.378L67.8242 109.432ZM61.9545 112.305V92.12H53.9545V112.305H61.9545ZM57.9545 96.12H79.6795V88.12H57.9545V96.12ZM75.6795 92.12V100.865H83.6795V92.12H75.6795ZM79.6795 96.865H68.6795V104.865H79.6795V96.865ZM64.6795 100.865V104.44H72.6795V100.865H64.6795ZM69.8159 108.275C70.3699 108.111 71.0957 108 72.0345 108V100C70.48 100 68.9691 100.182 67.5432 100.605L69.8159 108.275ZM72.0345 108C74.3996 108 75.4728 108.638 76.031 109.259C76.662 109.961 77.3295 111.411 77.3295 114.34H85.3295C85.3295 110.376 84.4478 106.656 81.9805 103.911C79.4403 101.085 75.8661 100 72.0345 100V108ZM117.282 91.845L121.091 93.0657L122.764 87.845H117.282V91.845ZM106.337 126V130H109.255L110.146 127.221L106.337 126ZM98.2519 126L94.4409 124.785L92.7781 130H98.2519V126ZM109.142 91.845V87.845H106.219L105.331 90.6299L109.142 91.845ZM94.5669 99.325L90.7722 100.59L90.8332 100.773L90.9117 100.95L94.5669 99.325ZM94.1269 98.28L90.413 99.7656L90.4748 99.92L90.5492 100.069L94.1269 98.28ZM91.8169 98.06L94.1418 101.315L94.2858 101.212L94.4201 101.097L91.8169 98.06ZM91.2669 108.51L87.3446 109.294V109.294L91.2669 108.51ZM91.8719 109.94L89.2687 112.977L89.3677 113.062L89.4719 113.14L91.8719 109.94ZM94.5119 109.005L98.4206 109.855L98.4243 109.838L98.4278 109.821L94.5119 109.005ZM100.507 94.265L97.1503 96.4406L97.1643 96.4623L97.1787 96.4838L100.507 94.265ZM100.507 113.075L97.198 110.827L97.1834 110.849L97.169 110.871L100.507 113.075ZM85.2719 113.075L81.9437 115.294L81.9675 115.33L81.9921 115.365L85.2719 113.075ZM85.2719 94.32L88.6001 96.5388L88.6095 96.5248L88.6187 96.5106L85.2719 94.32ZM124.267 109.885L120.472 111.15L120.533 111.333L120.612 111.51L124.267 109.885ZM123.827 108.84L120.113 110.326L120.175 110.48L120.249 110.629L123.827 108.84ZM121.517 108.62L123.842 111.875L123.986 111.772L124.12 111.657L121.517 108.62ZM120.967 119.07L117.045 119.854L120.967 119.07ZM121.572 120.5L118.969 123.537L119.068 123.622L119.172 123.7L121.572 120.5ZM124.212 119.565L128.121 120.415L128.124 120.398L128.128 120.381L124.212 119.565ZM130.207 104.825L126.85 107.001L126.864 107.022L126.879 107.044L130.207 104.825ZM130.207 123.635L126.898 121.387L126.883 121.409L126.869 121.431L130.207 123.635ZM114.972 123.635L111.644 125.854L111.667 125.89L111.692 125.925L114.972 123.635ZM114.972 104.88L118.3 107.099L118.309 107.085L118.319 107.071L114.972 104.88ZM113.473 90.6243L102.528 124.779L110.146 127.221L121.091 93.0657L113.473 90.6243ZM106.337 122H98.2519V130H106.337V122ZM102.063 127.215L112.953 93.0601L105.331 90.6299L94.4409 124.785L102.063 127.215ZM109.142 95.845H117.282V87.845H109.142V95.845ZM98.7869 104.055V101.69H90.7869V104.055H98.7869ZM98.7869 101.69C98.7869 101.004 98.7674 100.36 98.7147 99.7933C98.6741 99.3569 98.5814 98.5088 98.2221 97.7004L90.9117 100.95C90.8384 100.785 90.7967 100.654 90.7754 100.58C90.753 100.502 90.7421 100.449 90.7384 100.431C90.7319 100.398 90.7389 100.424 90.7491 100.534C90.7698 100.756 90.7869 101.129 90.7869 101.69H98.7869ZM98.3616 98.0601C98.1823 97.5222 97.9581 96.9981 97.7046 96.4911L90.5492 100.069C90.6624 100.295 90.7315 100.468 90.7722 100.59L98.3616 98.0601ZM97.8408 96.7944C96.8035 94.2013 94.3225 93.73 93.0269 93.73V101.73C92.9487 101.73 92.512 101.725 91.953 101.445C91.2967 101.117 90.7184 100.529 90.413 99.7656L97.8408 96.7944ZM93.0269 93.73C92.0817 93.73 90.5299 93.8949 89.2137 95.023L94.4201 101.097C94.0052 101.453 93.602 101.607 93.3644 101.672C93.1348 101.734 93.0025 101.73 93.0269 101.73V93.73ZM89.4919 94.8051C88.3611 95.6128 87.9002 96.734 87.719 97.2345C87.494 97.8558 87.365 98.5036 87.2813 99.0778C87.1116 100.241 87.0469 101.693 87.0469 103.34H95.0469C95.0469 101.833 95.1105 100.829 95.1975 100.232C95.2421 99.9264 95.2736 99.8683 95.2411 99.958C95.2226 100.009 95.1601 100.173 95.0235 100.391C94.891 100.602 94.6189 100.974 94.1418 101.315L89.4919 94.8051ZM87.0469 103.34V104.055H95.0469V103.34H87.0469ZM87.0469 104.055C87.0469 106.225 87.1073 108.108 87.3446 109.294L95.1892 107.726C95.1895 107.727 95.1848 107.703 95.1771 107.648C95.1696 107.594 95.1606 107.52 95.1511 107.424C95.1319 107.23 95.1131 106.975 95.097 106.649C95.0648 105.996 95.0469 105.137 95.0469 104.055H87.0469ZM87.3446 109.294C87.4498 109.82 87.6028 110.405 87.8443 110.976C88.0699 111.509 88.4872 112.307 89.2687 112.977L94.4751 106.903C94.7522 107.141 94.9289 107.373 95.0314 107.528C95.1346 107.685 95.1896 107.806 95.212 107.859C95.2518 107.953 95.2307 107.933 95.1892 107.726L87.3446 109.294ZM89.4719 113.14C90.6402 114.016 91.9449 114.27 93.0269 114.27V106.27C93.1556 106.27 93.6902 106.304 94.2719 106.74L89.4719 113.14ZM93.0269 114.27C94.1443 114.27 95.4641 113.964 96.597 112.999C97.7002 112.059 98.2035 110.853 98.4206 109.855L90.6032 108.155C90.6369 108 90.801 107.427 91.4093 106.909C92.0472 106.365 92.7161 106.27 93.0269 106.27V114.27ZM98.4278 109.821C98.7068 108.482 98.7869 106.438 98.7869 104.055H90.7869C90.7869 106.512 90.6836 107.768 90.596 108.189L98.4278 109.821ZM92.9169 95.295C96.1808 95.295 96.9682 96.1597 97.1503 96.4406L103.864 92.0894C101.479 88.4103 97.2063 87.295 92.9169 87.295V95.295ZM97.1787 96.4838C97.8292 97.4596 98.4869 99.6294 98.4869 103.725H106.487C106.487 99.1673 105.825 95.0304 103.835 92.0462L97.1787 96.4838ZM98.4869 103.725C98.4869 107.786 97.8279 109.9 97.198 110.827L103.816 115.323C105.826 112.363 106.487 108.244 106.487 103.725H98.4869ZM97.169 110.871C96.9986 111.129 96.2069 111.99 92.9169 111.99V119.99C97.1802 119.99 101.449 118.908 103.845 115.279L97.169 110.871ZM92.9169 111.99C89.7074 111.99 88.805 111.148 88.5517 110.785L81.9921 115.365C84.4521 118.889 88.6464 119.99 92.9169 119.99V111.99ZM88.6001 110.856C87.9444 109.873 87.2919 107.73 87.2919 103.725H79.2919C79.2919 108.226 79.9594 112.317 81.9437 115.294L88.6001 110.856ZM87.2919 103.725C87.2919 99.6744 87.947 97.5184 88.6001 96.5388L81.9437 92.1012C79.9568 95.0816 79.2919 99.1956 79.2919 103.725H87.2919ZM88.6187 96.5106C88.8494 96.1582 89.6917 95.295 92.9169 95.295V87.295C88.5887 87.295 84.3344 88.4484 81.9251 92.1294L88.6187 96.5106ZM128.487 114.615V112.25H120.487V114.615H128.487ZM128.487 112.25C128.487 111.564 128.467 110.92 128.415 110.353C128.374 109.917 128.281 109.069 127.922 108.26L120.612 111.51C120.538 111.345 120.497 111.214 120.475 111.14C120.453 111.062 120.442 111.009 120.438 110.991C120.432 110.958 120.439 110.984 120.449 111.094C120.47 111.316 120.487 111.689 120.487 112.25H128.487ZM128.062 108.62C127.882 108.082 127.658 107.558 127.405 107.051L120.249 110.629C120.362 110.855 120.431 111.028 120.472 111.15L128.062 108.62ZM127.541 107.354C126.504 104.761 124.023 104.29 122.727 104.29V112.29C122.649 112.29 122.212 112.285 121.653 112.005C120.997 111.677 120.418 111.089 120.113 110.326L127.541 107.354ZM122.727 104.29C121.782 104.29 120.23 104.455 118.914 105.583L124.12 111.657C123.705 112.013 123.302 112.167 123.064 112.232C122.835 112.294 122.703 112.29 122.727 112.29V104.29ZM119.192 105.365C118.061 106.173 117.6 107.294 117.419 107.794C117.194 108.416 117.065 109.064 116.981 109.638C116.812 110.801 116.747 112.253 116.747 113.9H124.747C124.747 112.393 124.81 111.389 124.898 110.792C124.942 110.486 124.974 110.428 124.941 110.518C124.923 110.569 124.86 110.733 124.724 110.951C124.591 111.162 124.319 111.534 123.842 111.875L119.192 105.365ZM116.747 113.9V114.615H124.747V113.9H116.747ZM116.747 114.615C116.747 116.785 116.807 118.668 117.045 119.854L124.889 118.286C124.889 118.287 124.885 118.263 124.877 118.208C124.87 118.154 124.861 118.08 124.851 117.984C124.832 117.79 124.813 117.535 124.797 117.209C124.765 116.556 124.747 115.697 124.747 114.615H116.747ZM117.045 119.854C117.15 120.38 117.303 120.965 117.544 121.536C117.77 122.069 118.187 122.867 118.969 123.537L124.175 117.463C124.452 117.701 124.629 117.933 124.731 118.088C124.835 118.245 124.89 118.366 124.912 118.419C124.952 118.513 124.931 118.493 124.889 118.286L117.045 119.854ZM119.172 123.7C120.34 124.576 121.645 124.83 122.727 124.83V116.83C122.856 116.83 123.39 116.864 123.972 117.3L119.172 123.7ZM122.727 124.83C123.844 124.83 125.164 124.524 126.297 123.559C127.4 122.619 127.904 121.413 128.121 120.415L120.303 118.715C120.337 118.56 120.501 117.987 121.109 117.469C121.747 116.925 122.416 116.83 122.727 116.83V124.83ZM128.128 120.381C128.407 119.042 128.487 116.998 128.487 114.615H120.487C120.487 117.072 120.384 118.328 120.296 118.749L128.128 120.381ZM122.617 105.855C125.881 105.855 126.668 106.72 126.85 107.001L133.564 102.649C131.179 98.9703 126.906 97.855 122.617 97.855V105.855ZM126.879 107.044C127.529 108.02 128.187 110.189 128.187 114.285H136.187C136.187 109.727 135.525 105.59 133.535 102.606L126.879 107.044ZM128.187 114.285C128.187 118.346 127.528 120.46 126.898 121.387L133.516 125.883C135.526 122.923 136.187 118.804 136.187 114.285H128.187ZM126.869 121.431C126.699 121.689 125.907 122.55 122.617 122.55V130.55C126.88 130.55 131.149 129.468 133.545 125.839L126.869 121.431ZM122.617 122.55C119.407 122.55 118.505 121.708 118.252 121.345L111.692 125.925C114.152 129.449 118.346 130.55 122.617 130.55V122.55ZM118.3 121.416C117.644 120.433 116.992 118.29 116.992 114.285H108.992C108.992 118.786 109.659 122.877 111.644 125.854L118.3 121.416ZM116.992 114.285C116.992 110.234 117.647 108.078 118.3 107.099L111.644 102.661C109.657 105.642 108.992 109.756 108.992 114.285H116.992ZM118.319 107.071C118.549 106.718 119.392 105.855 122.617 105.855V97.855C118.289 97.855 114.034 99.0084 111.625 102.689L118.319 107.071Z" fill="white"/>
</svg>
