<?xml version="1.0" encoding="utf-8"?>
<!-- Generator: Adobe Illustrator 26.0.2, SVG Export Plug-In . SVG Version: 6.00 Build 0)  -->
<svg version="1.1" xmlns="http://www.w3.org/2000/svg" xmlns:xlink="http://www.w3.org/1999/xlink" x="0px" y="0px"
	 viewBox="0 0 27.37 27.37" style="enable-background:new 0 0 27.37 27.37;" xml:space="preserve">
<style type="text/css">
	.st0{fill:#9EB895;}
	.st1{fill:#7EA172;}
	.st2{fill:#BED0B8;}
	.st3{fill:#FFFFFF;}
	.st4{fill:#B1DFFF;}
	.st5{fill:#EBB2AD;stroke:#F4E1E0;stroke-width:2.2806;}
</style>
<g id="Layer_2">
	<g>
		<path class="st0" d="M86.07,18.82c0,0-2.04,7.41,0.36,8.32c17.36,6.65,28.97,1.49,30.63,0.23c1.66-1.26,1.58-8.96,0.6-9.24
			C116.67,17.87,100.4,9.99,86.07,18.82z"/>
		<path class="st1" d="M85.81,18.91c0,0,6.92,0.35,7.94,2.21c1.02,1.86,0.72,4.28,0.72,4.28s5.3,3.13,15.73,0.39
			c0,0-0.12-4.3,1.19-5.42c1.62-1.38,6.23-2.17,6.23-2.17S99.43,9.77,85.81,18.91z"/>
		<path class="st2" d="M111.27,20.64c0,0-0.72,0.21-1.18,5.4c0,0-10.16,2.79-15.73-0.38c0,0,0.19-3.92-0.86-4.72
			S101.5,16.05,111.27,20.64z"/>
	</g>
	<g>
		<g>
			<path class="st3" d="M93.86,11.88c0.28-0.39,0.84-0.71,1.68-0.9c0.84-0.19,1.48-0.14,1.89,0.09c0.41,0.24,0.65,0.7,0.75,1.36
				c0.1,0.67-0.01,1.19-0.29,1.56c-0.28,0.38-0.79,0.62-1.52,0.79c-0.73,0.16-1.29,0.15-1.7-0.06c-0.41-0.21-0.72-0.64-0.92-1.28
				C93.55,12.79,93.58,12.27,93.86,11.88z M96.33,11.99c-0.12-0.11-0.31-0.14-0.59-0.08c-0.28,0.06-0.44,0.17-0.49,0.32
				c-0.05,0.15-0.03,0.4,0.06,0.76c0.01,0.05,0.02,0.09,0.04,0.14c0.09,0.38,0.2,0.62,0.31,0.72c0.11,0.1,0.3,0.12,0.56,0.06
				c0.26-0.06,0.41-0.15,0.47-0.28c0.05-0.13,0.04-0.38-0.03-0.74c-0.01-0.06-0.03-0.13-0.04-0.19
				C96.54,12.34,96.45,12.1,96.33,11.99z"/>
			<path class="st3" d="M102.98,10.29c-0.37,1.25-0.69,2.51-0.98,3.77c-0.76,0.01-1.52,0.05-2.28,0.13
				c-0.44-1.22-0.93-2.43-1.46-3.63c0.61-0.08,1.23-0.14,1.85-0.19c0.24,0.81,0.46,1.62,0.67,2.44c0.05,0,0.1-0.01,0.15-0.01
				c0.08-0.83,0.17-1.66,0.28-2.49C101.8,10.28,102.39,10.28,102.98,10.29z"/>
			<path class="st3" d="M106.28,14.33c-0.96-0.14-1.92-0.22-2.89-0.26c0.04-1.26,0.09-2.51,0.13-3.77c1.13,0.04,2.26,0.14,3.38,0.3
				c-0.08,0.3-0.15,0.6-0.23,0.91c-0.52-0.07-1.04-0.13-1.56-0.18c-0.02,0.19-0.03,0.38-0.05,0.56c0.44,0.04,0.89,0.09,1.33,0.15
				c-0.04,0.27-0.07,0.53-0.11,0.8c-0.43-0.06-0.86-0.11-1.29-0.14c-0.02,0.21-0.04,0.42-0.06,0.62c0.52,0.05,1.03,0.11,1.55,0.18
				C106.42,13.77,106.35,14.05,106.28,14.33z"/>
			<path class="st3" d="M111.2,12.79c-0.07,0.22-0.17,0.38-0.32,0.49c-0.14,0.11-0.34,0.2-0.59,0.25c0.1,0.58,0.19,1.17,0.26,1.75
				c-0.51-0.16-1.03-0.3-1.55-0.43c-0.07-0.48-0.14-0.97-0.22-1.45c-0.07-0.02-0.14-0.03-0.2-0.05c-0.1,0.44-0.19,0.89-0.29,1.33
				c-0.47-0.1-0.95-0.19-1.43-0.27c0.2-1.24,0.41-2.48,0.61-3.73c0.75,0.12,1.5,0.27,2.24,0.45c0.64,0.15,1.08,0.38,1.32,0.64
				C111.27,12.05,111.33,12.39,111.2,12.79z M109.31,12.78c0.08-0.04,0.14-0.14,0.18-0.3c0.04-0.16,0.03-0.27-0.02-0.35
				c-0.05-0.08-0.16-0.13-0.31-0.17c-0.08-0.02-0.17-0.04-0.25-0.06c-0.06,0.28-0.12,0.55-0.18,0.83c0.08,0.02,0.16,0.03,0.23,0.05
				C109.11,12.82,109.23,12.82,109.31,12.78z"/>
			<path class="st3" d="M93.57,22.17c0.3,0.67,0.06,1.16-0.67,1.54c-0.47,0.25-0.94,0.52-1.39,0.81c-0.67-1.06-1.35-2.12-2.02-3.19
				c0.53-0.34,1.07-0.65,1.62-0.94c0.43-0.23,0.8-0.32,1.07-0.28c0.28,0.04,0.49,0.22,0.63,0.53c0.14,0.31,0.09,0.61-0.12,0.92
				c0.01,0.01,0.01,0.02,0.02,0.03C93.08,21.54,93.37,21.74,93.57,22.17z M91.8,21.75c0.01-0.07-0.02-0.17-0.08-0.3
				c-0.07-0.13-0.13-0.21-0.2-0.24c-0.07-0.03-0.15-0.02-0.26,0.04c-0.07,0.04-0.14,0.08-0.21,0.12c0.13,0.23,0.25,0.45,0.38,0.68
				c0.07-0.04,0.14-0.08,0.21-0.12C91.73,21.88,91.79,21.82,91.8,21.75z M92.54,23.04c0.02-0.07-0.02-0.18-0.1-0.33
				c-0.08-0.15-0.16-0.25-0.24-0.29c-0.08-0.04-0.18-0.03-0.3,0.04c-0.07,0.04-0.13,0.07-0.2,0.11c0.15,0.26,0.29,0.52,0.44,0.78
				c0.06-0.04,0.13-0.07,0.19-0.1C92.46,23.18,92.52,23.11,92.54,23.04z"/>
			<path class="st3" d="M96.25,19.61c0.06,0.22,0.07,0.41,0.04,0.58c-0.04,0.17-0.12,0.33-0.24,0.5c0.34,0.46,0.66,0.92,0.98,1.39
				c-0.38,0.1-0.76,0.22-1.13,0.35c-0.27-0.39-0.55-0.77-0.84-1.15c-0.05,0.02-0.1,0.04-0.15,0.05c0.16,0.43,0.31,0.85,0.47,1.28
				c-0.34,0.12-0.68,0.26-1.01,0.4c-0.5-1.16-0.99-2.31-1.49-3.47c0.55-0.23,1.1-0.45,1.66-0.64c0.48-0.17,0.87-0.18,1.14-0.07
				C95.94,18.95,96.13,19.21,96.25,19.61z M95.07,20.49c0.03-0.07,0.02-0.19-0.03-0.34c-0.05-0.15-0.11-0.25-0.18-0.29
				c-0.07-0.04-0.17-0.04-0.28,0c-0.06,0.02-0.12,0.04-0.19,0.07c0.1,0.27,0.2,0.53,0.29,0.8c0.06-0.02,0.11-0.04,0.17-0.06
				C94.96,20.62,95.04,20.57,95.07,20.49z"/>
			<path class="st3" d="M99.47,21.56c-0.71,0.1-1.41,0.24-2.1,0.42c-0.31-1.22-0.62-2.44-0.93-3.66c0.85-0.22,1.7-0.39,2.57-0.51
				c0.02,0.31,0.04,0.62,0.06,0.93c-0.4,0.06-0.79,0.13-1.18,0.2c0.04,0.18,0.07,0.37,0.11,0.55c0.33-0.07,0.66-0.12,1-0.18
				c0.04,0.26,0.08,0.53,0.12,0.79c-0.32,0.05-0.64,0.11-0.96,0.17c0.04,0.2,0.08,0.41,0.12,0.61c0.38-0.08,0.76-0.14,1.15-0.2
				C99.43,20.99,99.45,21.28,99.47,21.56z"/>
			<path class="st3" d="M102.02,21.35c-0.71,0.01-1.42,0.06-2.13,0.15c-0.16-1.25-0.31-2.5-0.47-3.75c0.86-0.11,1.73-0.17,2.6-0.18
				c-0.02,0.31-0.04,0.62-0.06,0.93c-0.4,0.01-0.8,0.03-1.19,0.05c0.01,0.19,0.03,0.38,0.04,0.56c0.34-0.02,0.67-0.04,1.01-0.05
				c0.01,0.27,0.01,0.53,0.02,0.8c-0.32,0.01-0.65,0.02-0.97,0.05c0.01,0.21,0.03,0.42,0.04,0.62c0.39-0.03,0.77-0.04,1.16-0.05
				C102.06,20.78,102.04,21.07,102.02,21.35z"/>
			<path class="st3" d="M105.67,19.62c-0.2,1.3-0.84,1.85-1.91,1.77c-0.44-0.03-0.87-0.04-1.31-0.05c0-1.26,0.01-2.52,0.01-3.77
				c0.53,0,1.05,0.02,1.58,0.06c0.69,0.05,1.16,0.26,1.4,0.61C105.69,18.58,105.76,19.04,105.67,19.62z M104.28,20.33
				c0.08-0.15,0.14-0.4,0.17-0.75c0.03-0.36,0.02-0.61-0.05-0.77c-0.07-0.16-0.23-0.25-0.49-0.26c-0.07,0-0.14-0.01-0.22-0.01
				c-0.04,0.66-0.07,1.32-0.11,1.98c0.07,0,0.15,0.01,0.22,0.01C104.04,20.54,104.19,20.47,104.28,20.33z"/>
			<path class="st3" d="M106.91,21.86c-0.35-0.08-0.71-0.15-1.06-0.21c0.21-1.24,0.43-2.48,0.64-3.72c0.42,0.07,0.84,0.16,1.26,0.25
				C107.47,19.4,107.19,20.63,106.91,21.86z"/>
			<path class="st3" d="M110.28,22.94c-0.33-0.14-0.65-0.26-0.99-0.38c-0.06-0.64-0.15-1.29-0.26-1.94
				c-0.02-0.01-0.04-0.01-0.05-0.02c-0.17,0.56-0.35,1.12-0.52,1.68c-0.31-0.1-0.62-0.19-0.94-0.27c0.32-1.22,0.63-2.44,0.95-3.65
				c0.41,0.11,0.83,0.23,1.23,0.36c0.11,0.67,0.21,1.34,0.27,2c0.02,0.01,0.04,0.01,0.05,0.02c0.21-0.57,0.41-1.13,0.62-1.7
				c0.37,0.13,0.73,0.28,1.09,0.43C111.25,20.62,110.77,21.78,110.28,22.94z"/>
			<path class="st3" d="M114.34,22.04c-0.35-0.35-0.63-0.57-0.82-0.68c-0.19-0.11-0.37-0.11-0.51,0c-0.15,0.1-0.3,0.31-0.45,0.61
				c-0.16,0.3-0.24,0.54-0.25,0.71c-0.01,0.17,0.08,0.31,0.27,0.41c0.06,0.03,0.17,0.08,0.35,0.14c0.08-0.13,0.15-0.27,0.23-0.4
				c-0.09-0.05-0.18-0.1-0.27-0.15c0.12-0.21,0.23-0.42,0.35-0.63c0.4,0.22,0.8,0.46,1.19,0.71c-0.37,0.59-0.74,1.17-1.12,1.76
				c-0.22-0.14-0.44-0.27-0.66-0.4c0-0.07,0-0.15,0.01-0.22c-0.01,0-0.02-0.01-0.02-0.01c-0.09,0.01-0.17,0.02-0.22,0.02
				c-0.15,0.01-0.32-0.03-0.51-0.14c-0.8-0.42-0.95-1.17-0.44-2.35c0.26-0.58,0.58-0.98,0.98-1.17c0.39-0.19,0.9-0.14,1.5,0.19
				c0.47,0.26,0.84,0.55,1.11,0.87C114.8,21.55,114.57,21.79,114.34,22.04z"/>
		</g>
	</g>
	<g>
		<g>
			<path class="st4" d="M93.38,11.94c0.27-0.39,0.83-0.7,1.66-0.89c0.83-0.18,1.46-0.14,1.86,0.09c0.4,0.23,0.65,0.69,0.74,1.35
				c0.09,0.66-0.01,1.17-0.29,1.54c-0.28,0.37-0.78,0.62-1.5,0.78c-0.72,0.16-1.28,0.15-1.68-0.06c-0.41-0.21-0.71-0.63-0.91-1.27
				C93.07,12.85,93.1,12.33,93.38,11.94z M95.82,12.06c-0.11-0.11-0.31-0.14-0.59-0.07c-0.27,0.06-0.44,0.17-0.48,0.31
				c-0.05,0.15-0.03,0.4,0.06,0.75c0.01,0.05,0.02,0.09,0.03,0.14c0.09,0.38,0.2,0.61,0.31,0.71c0.11,0.1,0.29,0.12,0.55,0.06
				c0.25-0.06,0.41-0.15,0.46-0.28c0.05-0.13,0.04-0.37-0.03-0.73c-0.01-0.06-0.03-0.13-0.04-0.19
				C96.02,12.4,95.93,12.17,95.82,12.06z"/>
			<path class="st4" d="M102.38,10.37c-0.36,1.24-0.68,2.48-0.96,3.73c-0.75,0.01-1.5,0.05-2.25,0.13c-0.44-1.21-0.92-2.4-1.44-3.59
				c0.61-0.08,1.21-0.14,1.82-0.19c0.23,0.8,0.45,1.6,0.66,2.41c0.05,0,0.1-0.01,0.15-0.01c0.08-0.82,0.17-1.64,0.27-2.46
				C101.22,10.37,101.8,10.36,102.38,10.37z"/>
			<path class="st4" d="M105.65,14.36c-0.95-0.13-1.9-0.22-2.86-0.25c0.04-1.24,0.09-2.48,0.13-3.73c1.12,0.04,2.23,0.14,3.34,0.3
				c-0.08,0.3-0.15,0.6-0.22,0.9c-0.51-0.07-1.03-0.13-1.54-0.18c-0.02,0.19-0.03,0.37-0.05,0.56c0.44,0.04,0.88,0.09,1.31,0.15
				c-0.04,0.26-0.07,0.52-0.11,0.79c-0.43-0.06-0.85-0.1-1.28-0.14c-0.02,0.21-0.04,0.41-0.06,0.62c0.51,0.05,1.02,0.11,1.53,0.18
				C105.78,13.82,105.71,14.09,105.65,14.36z"/>
			<path class="st4" d="M110.51,12.84c-0.07,0.21-0.17,0.38-0.31,0.49c-0.14,0.11-0.34,0.19-0.58,0.25c0.1,0.58,0.19,1.15,0.26,1.73
				c-0.51-0.16-1.02-0.3-1.53-0.42c-0.07-0.48-0.14-0.96-0.22-1.43c-0.07-0.02-0.13-0.03-0.2-0.04c-0.1,0.44-0.19,0.88-0.29,1.31
				c-0.47-0.1-0.94-0.19-1.41-0.27c0.2-1.23,0.4-2.45,0.6-3.68c0.74,0.12,1.48,0.27,2.21,0.44c0.63,0.15,1.07,0.37,1.31,0.64
				C110.57,12.12,110.63,12.45,110.51,12.84z M108.64,12.83c0.08-0.04,0.14-0.14,0.18-0.29c0.04-0.15,0.03-0.27-0.02-0.35
				c-0.05-0.08-0.16-0.13-0.31-0.17c-0.08-0.02-0.17-0.04-0.25-0.06c-0.06,0.27-0.12,0.55-0.18,0.82c0.08,0.02,0.16,0.03,0.23,0.05
				C108.44,12.88,108.56,12.88,108.64,12.83z"/>
			<path class="st4" d="M93.09,22.11c0.29,0.66,0.06,1.14-0.67,1.52c-0.47,0.25-0.92,0.51-1.38,0.8c-0.67-1.05-1.33-2.1-2-3.15
				c0.52-0.33,1.06-0.64,1.6-0.93c0.43-0.23,0.79-0.31,1.06-0.27c0.28,0.04,0.48,0.22,0.62,0.52c0.14,0.31,0.09,0.61-0.12,0.91
				c0.01,0.01,0.01,0.02,0.02,0.03C92.61,21.49,92.9,21.68,93.09,22.11z M91.34,21.69c0.01-0.07-0.01-0.17-0.08-0.29
				c-0.07-0.13-0.13-0.2-0.2-0.23c-0.07-0.03-0.15-0.02-0.25,0.04c-0.07,0.04-0.14,0.08-0.21,0.11c0.12,0.22,0.25,0.45,0.37,0.67
				c0.07-0.04,0.14-0.08,0.21-0.11C91.28,21.82,91.33,21.76,91.34,21.69z M92.07,22.97c0.02-0.07-0.01-0.18-0.09-0.33
				c-0.08-0.15-0.16-0.25-0.23-0.28c-0.08-0.04-0.18-0.03-0.29,0.04c-0.07,0.04-0.13,0.07-0.19,0.11c0.14,0.26,0.29,0.51,0.43,0.77
				c0.06-0.03,0.12-0.07,0.19-0.1C91.99,23.1,92.06,23.04,92.07,22.97z"/>
			<path class="st4" d="M95.73,19.58c0.06,0.22,0.07,0.41,0.04,0.57c-0.04,0.16-0.11,0.33-0.24,0.49c0.33,0.45,0.66,0.91,0.96,1.37
				c-0.38,0.1-0.75,0.22-1.12,0.34c-0.27-0.38-0.54-0.76-0.83-1.13c-0.05,0.02-0.1,0.04-0.15,0.05c0.15,0.42,0.31,0.84,0.46,1.26
				c-0.33,0.12-0.67,0.26-1,0.4c-0.49-1.14-0.98-2.28-1.47-3.42c0.54-0.23,1.08-0.44,1.63-0.63c0.48-0.16,0.86-0.18,1.13-0.07
				C95.43,18.93,95.62,19.19,95.73,19.58z M94.57,20.45c0.03-0.07,0.02-0.19-0.03-0.33c-0.05-0.15-0.11-0.25-0.18-0.29
				c-0.07-0.04-0.16-0.04-0.28,0c-0.06,0.02-0.12,0.04-0.18,0.07c0.1,0.26,0.19,0.53,0.29,0.79c0.06-0.02,0.11-0.04,0.17-0.06
				C94.47,20.58,94.54,20.52,94.57,20.45z"/>
			<path class="st4" d="M98.91,21.51c-0.7,0.1-1.39,0.24-2.08,0.42c-0.31-1.2-0.62-2.41-0.92-3.61c0.84-0.21,1.68-0.38,2.53-0.5
				c0.02,0.31,0.04,0.61,0.06,0.92c-0.39,0.06-0.78,0.12-1.17,0.2c0.04,0.18,0.07,0.36,0.11,0.55c0.33-0.07,0.66-0.12,0.99-0.17
				c0.04,0.26,0.08,0.52,0.12,0.78c-0.32,0.05-0.64,0.1-0.95,0.17c0.04,0.2,0.08,0.4,0.12,0.61c0.38-0.07,0.75-0.14,1.13-0.19
				C98.88,20.95,98.89,21.23,98.91,21.51z"/>
			<path class="st4" d="M101.44,21.3c-0.7,0.01-1.41,0.06-2.1,0.15c-0.15-1.23-0.31-2.47-0.46-3.7c0.85-0.11,1.71-0.17,2.57-0.18
				c-0.02,0.31-0.04,0.61-0.06,0.92c-0.39,0.01-0.79,0.02-1.18,0.05c0.01,0.19,0.03,0.37,0.04,0.56c0.33-0.02,0.66-0.04,1-0.05
				c0.01,0.26,0.01,0.53,0.02,0.79c-0.32,0.01-0.64,0.02-0.96,0.05c0.01,0.21,0.03,0.41,0.04,0.62c0.38-0.03,0.76-0.04,1.14-0.05
				C101.47,20.74,101.46,21.02,101.44,21.3z"/>
			<path class="st4" d="M105.04,19.59c-0.2,1.29-0.83,1.83-1.88,1.75c-0.43-0.03-0.86-0.04-1.29-0.04c0-1.24,0.01-2.49,0.01-3.73
				c0.52,0,1.04,0.02,1.56,0.06c0.68,0.05,1.14,0.26,1.38,0.6C105.06,18.56,105.13,19.02,105.04,19.59z M103.66,20.29
				c0.08-0.14,0.14-0.39,0.17-0.74c0.03-0.35,0.02-0.61-0.05-0.76c-0.07-0.15-0.23-0.24-0.48-0.26c-0.07,0-0.14-0.01-0.22-0.01
				c-0.04,0.65-0.07,1.3-0.11,1.95c0.07,0,0.14,0.01,0.22,0.01C103.43,20.49,103.58,20.43,103.66,20.29z"/>
			<path class="st4" d="M106.27,21.8c-0.35-0.08-0.7-0.15-1.05-0.21c0.21-1.22,0.42-2.45,0.63-3.67c0.42,0.07,0.83,0.15,1.25,0.25
				C106.82,19.37,106.54,20.59,106.27,21.8z"/>
			<path class="st4" d="M109.59,22.86c-0.32-0.14-0.65-0.26-0.97-0.38c-0.06-0.64-0.15-1.28-0.26-1.92
				c-0.02-0.01-0.03-0.01-0.05-0.02c-0.17,0.55-0.34,1.1-0.52,1.66c-0.31-0.1-0.62-0.18-0.93-0.26c0.31-1.2,0.63-2.41,0.94-3.61
				c0.41,0.11,0.82,0.22,1.22,0.35c0.11,0.66,0.2,1.32,0.27,1.98c0.02,0.01,0.03,0.01,0.05,0.02c0.2-0.56,0.41-1.12,0.61-1.68
				c0.36,0.13,0.72,0.27,1.08,0.42C110.56,20.57,110.07,21.72,109.59,22.86z"/>
			<path class="st4" d="M113.6,21.98c-0.34-0.34-0.62-0.56-0.81-0.67c-0.19-0.11-0.36-0.11-0.5,0c-0.14,0.1-0.29,0.3-0.45,0.6
				c-0.15,0.3-0.24,0.54-0.24,0.71c-0.01,0.17,0.08,0.3,0.27,0.41c0.05,0.03,0.17,0.07,0.34,0.14c0.08-0.13,0.15-0.26,0.23-0.4
				c-0.09-0.05-0.18-0.1-0.27-0.15c0.11-0.21,0.23-0.41,0.34-0.62c0.4,0.22,0.79,0.45,1.18,0.7c-0.37,0.58-0.74,1.16-1.1,1.74
				c-0.22-0.14-0.44-0.27-0.66-0.4c0-0.07,0-0.15,0.01-0.22c-0.01,0-0.02-0.01-0.02-0.01c-0.09,0.01-0.16,0.02-0.22,0.02
				c-0.15,0.01-0.32-0.03-0.51-0.13c-0.78-0.41-0.94-1.16-0.43-2.32c0.26-0.58,0.57-0.97,0.96-1.15c0.39-0.19,0.89-0.13,1.48,0.18
				c0.47,0.25,0.83,0.55,1.09,0.86C114.06,21.49,113.83,21.74,113.6,21.98z"/>
		</g>
	</g>
	<path class="st5" d="M7.6,1.14h12.16c3.57,0,6.46,2.89,6.46,6.46v12.16c0,3.57-2.89,6.46-6.46,6.46H7.6
		c-3.57,0-6.46-2.89-6.46-6.46V7.6C1.14,4.03,4.03,1.14,7.6,1.14z"/>
</g>
<g id="Layer_3">
</g>
</svg>
