<?xml version="1.0" encoding="utf-8"?>
<!-- Generator: Adobe Illustrator 26.0.2, SVG Export Plug-In . SVG Version: 6.00 Build 0)  -->
<svg version="1.1" id="Layer_1" xmlns="http://www.w3.org/2000/svg" xmlns:xlink="http://www.w3.org/1999/xlink" x="0px" y="0px"
	 viewBox="0 0 337.88 179.99" style="enable-background:new 0 0 337.88 179.99;" xml:space="preserve">
<style type="text/css">
	.st0{fill:#B372B5;}
	.st1{fill:#FACDAF;}
	.st2{fill:#FCCFB1;}
	.st3{fill:#6F8FAF;}
	.st4{fill:#FFFFFF;}
	.st5{fill:#B38B67;}
	.st6{fill:#FCA391;}
	.st7{fill:#2C2422;}
	.st8{fill:#999999;}
	.st9{fill:#FCEDE3;}
	.st10{fill:#6B4929;}
	.st11{fill:#9EC0DB;}
	.st12{fill:none;}
	.st13{fill:#D39F9F;}
	.st14{fill:#F1CC8F;}
	.st15{fill:#020202;}
	.st16{fill:#7F7F7F;}
	.st17{fill:none;stroke:#FFFFFF;stroke-width:0.1;stroke-miterlimit:10;}
	.st18{font-family:'PassionOne-Regular';}
	.st19{font-size:16px;}
</style>
<g id="marisa">
	<path class="st0" d="M114.07,93.47c0,0-14.25,6.7-16.97-9.51c0,0-16.48,0.29-8.69-21.9c0,0-9.6-7.92,1.27-17.43
		c0,0-6.88-14.48,5.61-15.34c0,0-1.45-9.29,5.98-8.86c0,0-1.44-17.5,17.76-16.42c0,0,7.16-8.96,15.72-0.05c0,0,16.56-6,17.35,13.66
		c0,0,23.62,5.43,12.75,32.54c0,0,14.67,23.11-4.35,28.99c0,0-2,14.95-11.05,14.53c-9.04-0.42-18.39-13.4-18.39-13.4L114.07,93.47z"
		/>
	<path class="st1" d="M112.61,111.22c0,1.61-1.11-0.83-1.11-0.83l-0.29,2.06c-1.07,2.39-0.95-0.33-0.95-0.33s0.08,0.58-0.91,1.07
		c-0.99,0.5-0.54-1.94-0.54-1.94s-0.12,1.03-0.87,0.99c-0.74-0.04,0.95-6.77,0.95-6.77s6.39-32.59,8.92-33.58c0,0,0.28,8.26-0.77,12
		l-4.02,19.71c0,0-0.55,1.76-0.55,4.07S112.61,111.22,112.61,111.22z"/>
	<path class="st1" d="M144.42,111.47c-0.07,1.61,1.48-0.76,1.48-0.76l0.29,2.08c1.29,2.45,1.24-0.28,1.24-0.28s-0.13,0.57,1.13,1.12
		s0.78-1.91,0.78-1.91s0.12,1.04,1.08,1.04s-0.94-6.82-0.94-6.82s-6.88-32.91-10.12-34.04c0,0-0.71,8.23,0.49,12.03l4.36,19.91
		c0,0,0.64,1.79,0.54,4.1C144.65,110.26,144.42,111.47,144.42,111.47z"/>
	<path class="st2" d="M126.05,66.3l-0.41,4.6l-6.48,1.32c0,0,3.1,3.73,9.29,3.45c6.19-0.28,7.59-1.44,9.23-3.5l-4.96-0.92
		l-0.29-5.34c0,0,15.07-1.9,22.77-10.51c0,0-13.37-30.8-24.64-40.51c0,0-28.44,20.91-29.08,42.34
		C106.48,61.82,116.18,66.3,126.05,66.3z"/>
	<path class="st1" d="M115.64,125.18c0,0-1.38,6.51,3.49,16.25s3.47,7.51,3.47,7.51l2.56-0.17v-1.9l-3.96-9.71
		c0,0-3.12-6.74-2.06-11.31L115.64,125.18z"/>
	<polygon class="st1" points="133.6,126.41 133.99,150.84 137.46,150.84 137.46,125.83 	"/>
	<polygon points="133.91,149.6 137.13,149.6 139.15,158.6 132.43,158.6 	"/>
	<polygon points="122.6,148.94 120.31,155.88 122.19,158.6 130.44,150.92 125.16,146.88 	"/>
	<polygon class="st1" points="115.89,94.71 114.67,100.84 141.98,100.85 140.82,94.36 	"/>
	<path class="st3" d="M114.7,98.2c0,0,23.31,0.07,27.76,0l5.68,42.73h-17.82l-1.96-26.42l-4.18,26.42h-15.66L114.7,98.2z"/>
	<path class="st4" d="M114.53,97.61l2.6-13.91l0.39-11.79h2.31c0,0,2.88,4.16,9.23,3.72c6.35-0.43,8.06-3.72,8.06-3.72h2.59v12.41
		l2.42,13"/>
	<path d="M135.98,49.94l0.83,2.26c0,0,6.83-2.15,11.56-1.6l0.22-2.97C148.58,47.63,143.41,46.42,135.98,49.94z"/>
	<path d="M120.36,49.94l-0.83,2.26c0,0-6.83-2.15-11.56-1.6l-0.22-2.97C107.76,47.63,112.93,46.42,120.36,49.94z"/>
	<polygon class="st5" points="108.51,40.36 119.13,38.11 119.13,42.84 106.58,43.12 	"/>
	<polygon class="st5" points="135.54,40.36 136.31,45.04 149.35,44.05 147.21,41.08 	"/>
	<ellipse class="st6" cx="108.29" cy="54.67" rx="2.2" ry="0.74"/>
	<ellipse class="st6" cx="147.7" cy="54.67" rx="2.2" ry="0.74"/>
	<path class="st4" d="M120.78,57.76h13.16c0,0-1.21,3.14-6.58,3.14C121.99,60.9,120.78,57.76,120.78,57.76z"/>
	<path class="st4" d="M139.7,71.91c0,0,2.81,3.58,4.66,12.62l-3.94,2.05l-1.07-4.27L139.7,71.91z"/>
	<path class="st4" d="M117.51,71.91c0,0-2.81,3.58-4.66,12.62l3.94,2.05l1.07-4.27L117.51,71.91z"/>
</g>
<g id="megan">
	<path class="st7" d="M182.34,86.6c0,0-14.44-63.72,5.84-77.12c6.45-5.2,14.44-8.75,28.58-7.66c0,0,18.44-3.83,27.04,10.12
		c8.6,13.95,8.91,31.45,7.68,45.95c-1.23,14.49-4.3,28.72-4.3,28.72S216.76,75.39,182.34,86.6z"/>
	<path class="st1" d="M230.77,110.02c-0.07,1.61,1.48-0.76,1.48-0.76l0.29,2.08c1.29,2.45,1.24-0.28,1.24-0.28s-0.13,0.57,1.13,1.12
		s0.78-1.91,0.78-1.91s0.12,1.04,1.08,1.04s-0.94-6.82-0.94-6.82s-6.88-32.91-10.12-34.04c0,0-0.71,8.23,0.49,12.03l4.36,19.91
		c0,0,0.64,1.79,0.54,4.1C231,108.8,230.77,110.02,230.77,110.02z"/>
	<path class="st1" d="M198.97,109.77c0,1.61-1.11-0.83-1.11-0.83l-0.29,2.06c-1.07,2.39-0.95-0.33-0.95-0.33s0.08,0.58-0.91,1.07
		c-0.99,0.5-0.54-1.94-0.54-1.94s-0.12,1.03-0.87,0.99c-0.74-0.04,0.95-6.77,0.95-6.77s6.39-32.59,8.92-33.58c0,0,0.28,8.26-0.77,12
		l-4.02,19.71c0,0-0.55,1.76-0.55,4.07S198.97,109.77,198.97,109.77z"/>
	<path class="st2" d="M212.4,64.85l-0.41,4.6l-6.48,1.32c0,0,3.1,3.73,9.29,3.45c6.19-0.29,7.59-1.44,9.23-3.5l-4.96-0.92
		l-0.29-5.34c0,0,15.07-1.9,22.77-10.51c0,0-13.37-30.8-24.64-40.51c0,0-28.44,20.91-29.08,42.34
		C192.84,60.36,202.54,64.85,212.4,64.85z"/>
	<path class="st1" d="M202,123.72c0,0-1.38,6.51,3.49,16.25s3.47,7.51,3.47,7.51l2.56-0.17v-1.9l-3.96-9.71
		c0,0-3.12-6.74-2.06-11.31L202,123.72z"/>
	<polygon class="st1" points="219.96,124.96 220.35,149.39 223.82,149.39 223.82,124.38 	"/>
	<polygon class="st8" points="220.27,148.15 223.49,148.15 225.5,157.15 218.78,157.15 	"/>
	<polygon class="st8" points="208.96,147.49 206.67,154.42 208.54,157.15 216.8,149.47 211.52,145.42 	"/>
	<polygon class="st1" points="202.24,93.25 201.03,99.39 228.33,99.4 227.17,92.91 	"/>
	<path d="M201.05,96.75c0,0,23.31,0.07,27.76,0l5.68,42.73h-17.82l-1.96-26.42l-4.18,26.42h-15.66L201.05,96.75z"/>
	<path d="M222.33,48.49l0.83,2.26c0,0,6.83-2.15,11.56-1.6l0.22-2.97C234.94,46.18,229.76,44.97,222.33,48.49z"/>
	<path d="M206.72,48.49l-0.83,2.25c0,0-6.83-2.15-11.56-1.6l-0.22-2.97C194.11,46.18,199.29,44.97,206.72,48.49z"/>
	<polygon class="st7" points="194.87,38.91 205.49,36.65 205.49,41.39 192.94,41.66 	"/>
	<polygon class="st7" points="221.89,38.91 222.66,43.59 235.71,42.6 233.56,39.63 	"/>
	<path class="st4" d="M207.14,56.3h13.16c0,0-1.21,3.14-6.58,3.14S207.14,56.3,207.14,56.3z"/>
	<path d="M200.89,95.39l2.6-13.49l0.39-11.44h2.31c0,0,2.78,1.69,9.14,1.58c6.23-0.11,8.14-1.58,8.14-1.58h2.59V82.5l2.42,12.61"/>
	<path class="st9" d="M217.06,73.66c5.51-0.67,6.41-3.21,6.41-3.21h2.59v12.04l2.42,12.61l-10.99,0.11L217.06,73.66z"/>
	<path class="st9" d="M213.3,95.26l-12.41,0.13l2.6-13.49l0.39-11.44h2.31c0,0,1.82,3.05,6.99,3.36L213.3,95.26z"/>
	<path class="st9" d="M203.87,70.46c0,0-4.53,6.06-9.76,32.59h5.09l6.39-21.52L203.87,70.46z"/>
	<path class="st9" d="M226.06,70.46c0,0,4.53,6.06,9.76,32.59h-5.09l-6.39-21.52L226.06,70.46z"/>
	<ellipse class="st6" cx="194.65" cy="53.22" rx="2.2" ry="0.74"/>
	<ellipse class="st6" cx="234.06" cy="53.22" rx="2.2" ry="0.74"/>
</g>
<g id="shae">
	<path class="st10" d="M268.21,99.07c0,0-14.44-74.04,5.84-89.61c6.45-6.04,14.44-10.17,28.58-8.9c0,0,18.44-4.45,27.04,11.76
		s8.91,36.54,7.68,53.38s-4.3,33.37-4.3,33.37S302.63,86.04,268.21,99.07z"/>
	<path class="st1" d="M284.84,108.43c0,1.61-1.11-0.83-1.11-0.83l-0.29,2.06c-1.07,2.39-0.95-0.33-0.95-0.33s0.08,0.58-0.91,1.07
		c-0.99,0.5-0.54-1.94-0.54-1.94s-0.12,1.03-0.87,0.99c-0.74-0.04,0.95-6.77,0.95-6.77s6.39-32.59,8.92-33.58c0,0,0.28,8.26-0.77,12
		l-4.02,19.71c0,0-0.55,1.76-0.55,4.07S284.84,108.43,284.84,108.43z"/>
	<path class="st1" d="M316.65,108.68c-0.07,1.61,1.48-0.76,1.48-0.76l0.29,2.08c1.29,2.45,1.24-0.28,1.24-0.28s-0.13,0.57,1.13,1.12
		s0.78-1.91,0.78-1.91s0.12,1.04,1.08,1.04s-0.94-6.82-0.94-6.82s-6.88-32.91-10.12-34.04c0,0-0.71,8.23,0.49,12.03l4.36,19.91
		c0,0,0.64,1.79,0.54,4.1C316.88,107.46,316.65,108.68,316.65,108.68z"/>
	<path class="st2" d="M298.28,63.51l-0.41,4.6l-6.48,1.32c0,0,3.1,3.73,9.29,3.45c6.19-0.29,7.59-1.44,9.23-3.5l-4.96-0.92
		l-0.29-5.34c0,0,15.07-1.9,22.77-10.51c0,0-13.37-30.8-24.64-40.51c0,0-28.44,20.91-29.08,42.34
		C278.72,59.03,288.41,63.51,298.28,63.51z"/>
	<path class="st1" d="M287.88,122.38c0,0-1.38,6.51,3.49,16.25s3.47,7.51,3.47,7.51l2.56-0.17v-1.9l-3.96-9.71
		c0,0-3.12-6.74-2.06-11.31L287.88,122.38z"/>
	<polygon class="st1" points="305.83,123.62 306.23,148.05 309.7,148.05 309.7,123.04 	"/>
	<polygon class="st4" points="306.15,146.81 309.37,146.81 311.38,155.81 304.66,155.81 	"/>
	<polygon class="st4" points="294.83,146.15 292.54,153.08 294.42,155.81 302.68,148.13 297.39,144.08 	"/>
	<polygon class="st1" points="288.12,91.92 286.91,98.05 314.21,98.06 313.05,91.57 	"/>
	<path class="st11" d="M286.93,95.41c0,0,23.31,0.07,27.76,0l5.68,42.73h-17.82l-1.96-26.42l-4.18,26.42h-15.66L286.93,95.41z"/>
	<line class="st12" x1="299.87" y1="93.39" x2="302.53" y2="93.37"/>
	<path d="M308.21,47.15l0.83,2.26c0,0,6.83-2.15,11.56-1.6l0.22-2.97C320.82,44.84,315.64,43.63,308.21,47.15z"/>
	<path d="M292.59,47.15l-0.83,2.26c0,0-6.83-2.15-11.56-1.6l-0.22-2.97C279.99,44.84,285.16,43.63,292.59,47.15z"/>
	<polygon class="st7" points="280.74,37.57 291.37,35.31 291.37,40.05 278.82,40.32 	"/>
	<polygon class="st7" points="307.77,37.57 308.54,42.25 321.59,41.26 319.44,38.29 	"/>
	<ellipse class="st6" cx="280.52" cy="51.88" rx="2.2" ry="0.74"/>
	<ellipse class="st6" cx="319.93" cy="51.88" rx="2.2" ry="0.74"/>
	<path class="st4" d="M293.02,54.97h13.16c0,0-1.21,3.14-6.58,3.14C294.23,58.1,293.02,54.97,293.02,54.97z"/>
	<path class="st13" d="M286.77,94.04l2.6-13.49l0.39-11.44h2.31c0,0,2.88,4.03,9.23,3.61s8.06-3.61,8.06-3.61h2.59v12.04l2.42,12.61
		"/>
	<path class="st9" d="M298.41,94.05"/>
</g>
<g id="soleil">
	<polygon class="st4" points="41.92,151.83 45.14,151.83 47.15,160.83 40.43,160.83 	"/>
	<path class="st14" d="M4.85,107.98c0,0-14.06-76.95,5.68-93.14c6.28-6.28,14.06-10.57,27.82-9.25c0,0,17.95-4.62,26.33,12.22
		s8.68,37.98,7.48,55.49s-4.19,34.68-4.19,34.68S38.35,94.44,4.85,107.98z"/>
	<path class="st1" d="M20.62,113.45c0,1.61-1.11-0.83-1.11-0.83l-0.29,2.06c-1.07,2.39-0.95-0.33-0.95-0.33s0.08,0.58-0.91,1.07
		c-0.99,0.5-0.54-1.94-0.54-1.94s-0.12,1.03-0.87,0.99s0.95-6.77,0.95-6.77s6.39-32.59,8.92-33.58c0,0,0.28,8.26-0.77,12
		l-4.02,19.71c0,0-0.55,1.76-0.55,4.07S20.62,113.45,20.62,113.45z"/>
	<path class="st1" d="M52.35,112.57c-0.07,1.56,1.45-0.74,1.45-0.74l0.28,2.02c1.27,2.38,1.22-0.27,1.22-0.27s-0.13,0.56,1.11,1.09
		s0.76-1.85,0.76-1.85s0.11,1.01,1.06,1.01s-0.93-6.62-0.93-6.62s-6.77-31.97-9.94-33.07c0,0-0.69,8,0.48,11.69l4.29,19.34
		c0,0,0.63,1.74,0.53,3.98C52.57,111.38,52.35,112.57,52.35,112.57z"/>
	<path class="st2" d="M34.06,68.52l-0.41,4.6l-6.48,1.32c0,0,3.1,3.73,9.29,3.45c6.19-0.29,7.59-1.44,9.23-3.5l-4.96-0.92
		l-0.29-5.34c0,0,15.07-1.9,22.77-10.51c0,0-13.37-30.8-24.64-40.51c0,0-28.44,20.91-29.08,42.34
		C14.49,64.04,24.19,68.52,34.06,68.52z"/>
	<path class="st1" d="M23.65,127.4c0,0-1.38,6.51,3.49,16.25s3.47,7.51,3.47,7.51l2.56-0.17v-1.9l-3.96-9.71
		c0,0-3.12-6.74-2.06-11.31L23.65,127.4z"/>
	<polygon class="st1" points="41.61,128.63 42,153.07 45.47,153.07 45.47,128.06 	"/>
	<polygon class="st4" points="30.61,151.17 28.32,158.1 30.2,160.83 38.45,153.15 33.17,149.1 	"/>
	<polygon class="st1" points="23.89,96.93 22.68,103.07 49.99,103.08 48.83,96.59 	"/>
	<path class="st15" d="M22.47,100.43c0,0,23.31,0.07,27.76,0v46.45H37.98l-1.85-30.14l-0.99,30.14H22.45L22.47,100.43z"/>
	<path class="st16" d="M22.54,99.07l2.6-13.49l0.39-11.44h2.31c0,0,2.88,4.03,9.23,3.61s8.06-3.61,8.06-3.61h2.59v12.04l2.42,12.61"
		/>
	<path d="M43.99,52.17l0.83,2.26c0,0,6.83-2.15,11.56-1.6l0.22-2.97C56.59,49.85,51.42,48.64,43.99,52.17z"/>
	<path d="M28.37,52.17l-0.83,2.26c0,0-6.83-2.15-11.56-1.6l-0.22-2.97C15.76,49.85,20.94,48.64,28.37,52.17z"/>
	<polygon class="st5" points="16.52,42.59 27.14,40.33 27.14,45.07 14.59,45.34 	"/>
	<polygon class="st5" points="43.54,42.59 44.32,47.27 57.36,46.28 55.21,43.3 	"/>
	<ellipse class="st6" cx="16.3" cy="56.9" rx="2.2" ry="0.74"/>
	<path class="st4" d="M28.79,59.98h13.16c0,0-1.21,3.14-6.58,3.14S28.79,59.98,28.79,59.98z"/>
	<path class="st16" d="M25.63,74.13c0,0-4.27,5.7-8.13,30.61h3.76l4.72-20.21L25.63,74.13z"/>
	<path class="st16" d="M47.7,74.13c0,0,5.18,5.7,9.04,30.61h-4.67l-4.72-20.21L47.7,74.13z"/>
	<ellipse class="st6" cx="55.71" cy="56.9" rx="2.2" ry="0.74"/>
	<line class="st17" x1="24.72" y1="100.43" x2="24.72" y2="146.88"/>
	<line class="st17" x1="27.03" y1="100.43" x2="27.03" y2="146.88"/>
	<line class="st17" x1="29.89" y1="100.43" x2="29.89" y2="146.88"/>
	<line class="st17" x1="32.43" y1="100.43" x2="32.43" y2="146.87"/>
	<line class="st17" x1="34.63" y1="100.43" x2="34.63" y2="146.87"/>
	<line class="st17" x1="38.07" y1="100.43" x2="38.07" y2="146.88"/>
	<line class="st17" x1="41.12" y1="100.43" x2="41.12" y2="146.88"/>
	<line class="st17" x1="44.2" y1="100.43" x2="44.2" y2="146.88"/>
	<line class="st17" x1="47.15" y1="100.43" x2="47.15" y2="146.87"/>
</g>
<text transform="matrix(1 0 0 1 21.7473 176.4968)" class="st18 st19">Soleil</text>
<text transform="matrix(1 0 0 1 111.4284 176.8173)" class="st18 st19">Marisa</text>
<text transform="matrix(1 0 0 1 198.394 176.4966)" class="st18 st19">Megan</text>
<text transform="matrix(1 0 0 1 288.6338 176.6569)" class="st18 st19">Shae</text>
</svg>
