<?xml version="1.0" encoding="utf-8"?>
<!-- Generator: Adobe Illustrator 25.4.1, SVG Export Plug-In . SVG Version: 6.00 Build 0)  -->
<svg version="1.1" id="Layer_1" xmlns="http://www.w3.org/2000/svg" xmlns:xlink="http://www.w3.org/1999/xlink" x="0px" y="0px"
	 viewBox="0 0 337.9 180" style="enable-background:new 0 0 337.9 180;" xml:space="preserve">
<style type="text/css">
	.st0{fill:#775823;}
	.st1{fill:#FACDAF;}
	.st2{fill:#FCCFB1;}
	.st3{fill:#6F8FAF;}
	.st4{fill:#FFFFFF;}
	.st5{fill:#B38B67;}
	.st6{fill:#FCA391;}
	.st7{fill:#2C2422;}
	.st8{fill:#999999;}
	.st9{fill:#FCEDE3;}
	.st10{fill:#6B4929;}
	.st11{fill:#9EC0DB;}
	.st12{fill:none;}
	.st13{fill:#D39F9F;}
	.st14{fill:#F1CC8F;}
	.st15{fill:#020202;}
	.st16{fill:#7F7F7F;}
	.st17{fill:none;stroke:#FFFFFF;stroke-width:0.1;stroke-miterlimit:10;}
	.st18{enable-background:new    ;}
</style>
<g id="marisa">
	<path class="st0" d="M114.1,93.5c0,0-14.2,6.7-17-9.5c0,0-16.5,0.3-8.7-21.9c0,0-9.6-7.9,1.3-17.4c0,0-6.9-14.5,5.6-15.3
		c0,0-1.4-9.3,6-8.9c0,0-1.4-17.5,17.8-16.4c0,0,7.2-9,15.7,0c0,0,16.6-6,17.4,13.7c0,0,23.6,5.4,12.8,32.5c0,0,14.7,23.1-4.4,29
		c0,0-2,14.9-11.1,14.5c-9-0.4-18.4-13.4-18.4-13.4L114.1,93.5z"/>
	<path class="st1" d="M112.6,111.2c0,1.6-1.1-0.8-1.1-0.8l-0.3,2.1c-1.1,2.4-0.9-0.3-0.9-0.3s0.1,0.6-0.9,1.1
		c-1,0.5-0.5-1.9-0.5-1.9s-0.1,1-0.9,1c-0.7,0,0.9-6.8,0.9-6.8s6.4-32.6,8.9-33.6c0,0,0.3,8.3-0.8,12l-4,19.7c0,0-0.6,1.8-0.6,4.1
		S112.6,111.2,112.6,111.2z"/>
	<path class="st1" d="M144.4,111.5c-0.1,1.6,1.5-0.8,1.5-0.8l0.3,2.1c1.3,2.4,1.2-0.3,1.2-0.3s-0.1,0.6,1.1,1.1s0.8-1.9,0.8-1.9
		s0.1,1,1.1,1s-0.9-6.8-0.9-6.8s-6.9-32.9-10.1-34c0,0-0.7,8.2,0.5,12l4.4,19.9c0,0,0.6,1.8,0.5,4.1
		C144.6,110.3,144.4,111.5,144.4,111.5z"/>
	<path class="st2" d="M126.1,66.3l-0.4,4.6l-6.5,1.3c0,0,3.1,3.7,9.3,3.4c6.2-0.3,7.6-1.4,9.2-3.5l-5-0.9l-0.3-5.3
		c0,0,15.1-1.9,22.8-10.5c0,0-13.4-30.8-24.6-40.5c0,0-28.4,20.9-29.1,42.3C106.5,61.8,116.2,66.3,126.1,66.3z"/>
	<path class="st1" d="M115.6,125.2c0,0-1.4,6.5,3.5,16.2s3.5,7.5,3.5,7.5l2.6-0.2v-1.9l-4-9.7c0,0-3.1-6.7-2.1-11.3L115.6,125.2z"/>
	<polygon class="st1" points="133.6,126.4 134,150.8 137.5,150.8 137.5,125.8 	"/>
	<polygon points="133.9,149.6 137.1,149.6 139.1,158.6 132.4,158.6 	"/>
	<polygon points="122.6,148.9 120.3,155.9 122.2,158.6 130.4,150.9 125.2,146.9 	"/>
	<polygon class="st1" points="115.9,94.7 114.7,100.8 142,100.8 140.8,94.4 	"/>
	<path class="st3" d="M114.7,98.2c0,0,23.3,0.1,27.8,0l5.7,42.7h-17.8l-2-26.4l-4.2,26.4h-15.7L114.7,98.2z"/>
	<path class="st4" d="M114.5,97.6l2.6-13.9l0.4-11.8h2.3c0,0,2.9,4.2,9.2,3.7c6.4-0.4,8.1-3.7,8.1-3.7h2.6v12.4l2.4,13"/>
	<path d="M136,49.9l0.8,2.3c0,0,6.8-2.2,11.6-1.6l0.2-3C148.6,47.6,143.4,46.4,136,49.9z"/>
	<path d="M120.4,49.9l-0.8,2.3c0,0-6.8-2.2-11.6-1.6l-0.2-3C107.8,47.6,112.9,46.4,120.4,49.9z"/>
	<polygon class="st5" points="108.5,40.4 119.1,38.1 119.1,42.8 106.6,43.1 	"/>
	<polygon class="st5" points="135.5,40.4 136.3,45 149.4,44 147.2,41.1 	"/>
	<ellipse class="st6" cx="108.3" cy="54.7" rx="2.2" ry="0.7"/>
	<ellipse class="st6" cx="147.7" cy="54.7" rx="2.2" ry="0.7"/>
	<path class="st4" d="M120.8,57.8h13.2c0,0-1.2,3.1-6.6,3.1C122,60.9,120.8,57.8,120.8,57.8z"/>
	<path class="st4" d="M139.7,71.9c0,0,2.8,3.6,4.7,12.6l-3.9,2.1l-1.1-4.3L139.7,71.9z"/>
	<path class="st4" d="M117.5,71.9c0,0-2.8,3.6-4.7,12.6l3.9,2.1l1.1-4.3L117.5,71.9z"/>
</g>
<g id="megan">
	<path class="st7" d="M182.3,86.6c0,0-14.4-63.7,5.8-77.1c6.4-5.2,14.4-8.8,28.6-7.7c0,0,18.4-3.8,27,10.1c8.6,13.9,8.9,31.5,7.7,46
		c-1.2,14.5-4.3,28.7-4.3,28.7S216.8,75.4,182.3,86.6z"/>
	<path class="st1" d="M230.8,110c-0.1,1.6,1.5-0.8,1.5-0.8l0.3,2.1c1.3,2.4,1.2-0.3,1.2-0.3s-0.1,0.6,1.1,1.1s0.8-1.9,0.8-1.9
		s0.1,1,1.1,1s-0.9-6.8-0.9-6.8s-6.9-32.9-10.1-34c0,0-0.7,8.2,0.5,12l4.4,19.9c0,0,0.6,1.8,0.5,4.1C231,108.8,230.8,110,230.8,110z
		"/>
	<path class="st1" d="M199,109.8c0,1.6-1.1-0.8-1.1-0.8l-0.3,2.1c-1.1,2.4-0.9-0.3-0.9-0.3s0.1,0.6-0.9,1.1c-1,0.5-0.5-1.9-0.5-1.9
		s-0.1,1-0.9,1c-0.7,0,0.9-6.8,0.9-6.8s6.4-32.6,8.9-33.6c0,0,0.3,8.3-0.8,12l-4,19.7c0,0-0.6,1.8-0.6,4.1S199,109.8,199,109.8z"/>
	<path class="st2" d="M212.4,64.8l-0.4,4.6l-6.5,1.3c0,0,3.1,3.7,9.3,3.4c6.2-0.3,7.6-1.4,9.2-3.5l-5-0.9l-0.3-5.3
		c0,0,15.1-1.9,22.8-10.5c0,0-13.4-30.8-24.6-40.5c0,0-28.4,20.9-29.1,42.3C192.8,60.4,202.5,64.8,212.4,64.8z"/>
	<path class="st1" d="M202,123.7c0,0-1.4,6.5,3.5,16.2s3.5,7.5,3.5,7.5l2.6-0.2v-1.9l-4-9.7c0,0-3.1-6.7-2.1-11.3L202,123.7z"/>
	<polygon class="st1" points="220,125 220.4,149.4 223.8,149.4 223.8,124.4 	"/>
	<polygon class="st8" points="220.3,148.1 223.5,148.1 225.5,157.1 218.8,157.1 	"/>
	<polygon class="st8" points="209,147.5 206.7,154.4 208.5,157.1 216.8,149.5 211.5,145.4 	"/>
	<polygon class="st1" points="202.2,93.2 201,99.4 228.3,99.4 227.2,92.9 	"/>
	<path d="M201.1,96.8c0,0,23.3,0.1,27.8,0l5.7,42.7h-17.8l-2-26.4l-4.2,26.4h-15.7L201.1,96.8z"/>
	<path d="M222.3,48.5l0.8,2.3c0,0,6.8-2.2,11.6-1.6l0.2-3C234.9,46.2,229.8,45,222.3,48.5z"/>
	<path d="M206.7,48.5l-0.8,2.2c0,0-6.8-2.2-11.6-1.6l-0.2-3C194.1,46.2,199.3,45,206.7,48.5z"/>
	<polygon class="st7" points="194.9,38.9 205.5,36.7 205.5,41.4 192.9,41.7 	"/>
	<polygon class="st7" points="221.9,38.9 222.7,43.6 235.7,42.6 233.6,39.6 	"/>
	<path class="st4" d="M207.1,56.3h13.2c0,0-1.2,3.1-6.6,3.1S207.1,56.3,207.1,56.3z"/>
	<path d="M200.9,95.4l2.6-13.5l0.4-11.4h2.3c0,0,2.8,1.7,9.1,1.6c6.2-0.1,8.1-1.6,8.1-1.6h2.6v12l2.4,12.6"/>
	<path class="st9" d="M217.1,73.7c5.5-0.7,6.4-3.2,6.4-3.2h2.6v12l2.4,12.6l-11,0.1L217.1,73.7z"/>
	<path class="st9" d="M213.3,95.3l-12.4,0.1l2.6-13.5l0.4-11.4h2.3c0,0,1.8,3.1,7,3.4L213.3,95.3z"/>
	<path class="st9" d="M203.9,70.5c0,0-4.5,6.1-9.8,32.6h5.1l6.4-21.5L203.9,70.5z"/>
	<path class="st9" d="M226.1,70.5c0,0,4.5,6.1,9.8,32.6h-5.1l-6.4-21.5L226.1,70.5z"/>
	<ellipse class="st6" cx="194.6" cy="53.2" rx="2.2" ry="0.7"/>
	<ellipse class="st6" cx="234.1" cy="53.2" rx="2.2" ry="0.7"/>
</g>
<g id="shae">
	<path class="st10" d="M268.2,99.1c0,0-14.4-74,5.8-89.6c6.5-6,14.4-10.2,28.6-8.9c0,0,18.4-4.4,27,11.8s8.9,36.5,7.7,53.4
		S333,99.1,333,99.1S302.6,86,268.2,99.1z"/>
	<path class="st1" d="M284.8,108.4c0,1.6-1.1-0.8-1.1-0.8l-0.3,2.1c-1.1,2.4-1-0.3-1-0.3s0.1,0.6-0.9,1.1c-1,0.5-0.5-1.9-0.5-1.9
		s-0.1,1-0.9,1c-0.7,0,1-6.8,1-6.8s6.4-32.6,8.9-33.6c0,0,0.3,8.3-0.8,12l-4,19.7c0,0-0.5,1.8-0.5,4.1S284.8,108.4,284.8,108.4z"/>
	<path class="st1" d="M316.6,108.7c-0.1,1.6,1.5-0.8,1.5-0.8l0.3,2.1c1.3,2.4,1.2-0.3,1.2-0.3s-0.1,0.6,1.1,1.1s0.8-1.9,0.8-1.9
		s0.1,1,1.1,1s-0.9-6.8-0.9-6.8s-6.9-32.9-10.1-34c0,0-0.7,8.2,0.5,12l4.4,19.9c0,0,0.6,1.8,0.5,4.1
		C316.9,107.5,316.6,108.7,316.6,108.7z"/>
	<path class="st2" d="M298.3,63.5l-0.4,4.6l-6.5,1.3c0,0,3.1,3.7,9.3,3.4c6.2-0.3,7.6-1.4,9.2-3.5l-5-0.9l-0.3-5.3
		c0,0,15.1-1.9,22.8-10.5c0,0-13.4-30.8-24.6-40.5c0,0-28.4,20.9-29.1,42.3C278.7,59,288.4,63.5,298.3,63.5z"/>
	<path class="st1" d="M287.9,122.4c0,0-1.4,6.5,3.5,16.3s3.5,7.5,3.5,7.5l2.6-0.2v-1.9l-4-9.7c0,0-3.1-6.7-2.1-11.3L287.9,122.4z"/>
	<polygon class="st1" points="305.8,123.6 306.2,148.1 309.7,148.1 309.7,123 	"/>
	<polygon class="st4" points="306.1,146.8 309.4,146.8 311.4,155.8 304.7,155.8 	"/>
	<polygon class="st4" points="294.8,146.1 292.5,153.1 294.4,155.8 302.7,148.1 297.4,144.1 	"/>
	<polygon class="st1" points="288.1,91.9 286.9,98.1 314.2,98.1 313,91.6 	"/>
	<path class="st11" d="M286.9,95.4c0,0,23.3,0.1,27.8,0l5.7,42.7h-17.8l-2-26.4l-4.2,26.4h-15.7L286.9,95.4z"/>
	<line class="st12" x1="299.9" y1="93.4" x2="302.5" y2="93.4"/>
	<path d="M308.2,47.2l0.8,2.3c0,0,6.8-2.2,11.6-1.6l0.2-3C320.8,44.8,315.6,43.6,308.2,47.2z"/>
	<path d="M292.6,47.2l-0.8,2.3c0,0-6.8-2.2-11.6-1.6l-0.2-3C280,44.8,285.2,43.6,292.6,47.2z"/>
	<polygon class="st7" points="280.7,37.6 291.4,35.3 291.4,40 278.8,40.3 	"/>
	<polygon class="st7" points="307.8,37.6 308.5,42.2 321.6,41.3 319.4,38.3 	"/>
	<ellipse class="st6" cx="280.5" cy="51.9" rx="2.2" ry="0.7"/>
	<ellipse class="st6" cx="319.9" cy="51.9" rx="2.2" ry="0.7"/>
	<path class="st4" d="M293,55h13.2c0,0-1.2,3.1-6.6,3.1C294.2,58.1,293,55,293,55z"/>
	<path class="st13" d="M286.8,94l2.6-13.5l0.4-11.4h2.3c0,0,2.9,4,9.2,3.6s8.1-3.6,8.1-3.6h2.6v12l2.4,12.6"/>
	<path class="st9" d="M298.4,94.1"/>
</g>
<g id="soleil">
	<polygon class="st4" points="41.9,151.8 45.1,151.8 47.2,160.8 40.4,160.8 	"/>
	<path class="st14" d="M4.8,108c0,0-14.1-76.9,5.7-93.1c6.3-6.3,14.1-10.6,27.8-9.2c0,0,18-4.6,26.3,12.2s8.7,38,7.5,55.5
		S68,108,68,108S38.3,94.4,4.8,108z"/>
	<path class="st1" d="M20.6,113.4c0,1.6-1.1-0.8-1.1-0.8l-0.3,2.1c-1.1,2.4-1-0.3-1-0.3s0.1,0.6-0.9,1.1c-1,0.5-0.5-1.9-0.5-1.9
		s-0.1,1-0.9,1s0.9-6.8,0.9-6.8s6.4-32.6,8.9-33.6c0,0,0.3,8.3-0.8,12l-4,19.7c0,0-0.5,1.8-0.5,4.1S20.6,113.4,20.6,113.4z"/>
	<path class="st1" d="M52.3,112.6c-0.1,1.6,1.5-0.7,1.5-0.7l0.3,2c1.3,2.4,1.2-0.3,1.2-0.3s-0.1,0.6,1.1,1.1s0.8-1.8,0.8-1.8
		s0.1,1,1.1,1s-0.9-6.6-0.9-6.6s-6.8-32-9.9-33.1c0,0-0.7,8,0.5,11.7l4.3,19.3c0,0,0.6,1.7,0.5,4C52.6,111.4,52.3,112.6,52.3,112.6z
		"/>
	<path class="st2" d="M34.1,68.5l-0.4,4.6l-6.5,1.3c0,0,3.1,3.7,9.3,3.4c6.2-0.3,7.6-1.4,9.2-3.5l-5-0.9l-0.3-5.3
		c0,0,15.1-1.9,22.8-10.5c0,0-13.4-30.8-24.6-40.5c0,0-28.4,20.9-29.1,42.3C14.5,64,24.2,68.5,34.1,68.5z"/>
	<path class="st1" d="M23.6,127.4c0,0-1.4,6.5,3.5,16.2s3.5,7.5,3.5,7.5l2.6-0.2v-1.9l-4-9.7c0,0-3.1-6.7-2.1-11.3L23.6,127.4z"/>
	<polygon class="st1" points="41.6,128.6 42,153.1 45.5,153.1 45.5,128.1 	"/>
	<polygon class="st4" points="30.6,151.2 28.3,158.1 30.2,160.8 38.5,153.1 33.2,149.1 	"/>
	<polygon class="st1" points="23.9,96.9 22.7,103.1 50,103.1 48.8,96.6 	"/>
	<path class="st15" d="M22.5,100.4c0,0,23.3,0.1,27.8,0v46.5H38l-1.8-30.1l-1,30.1H22.5L22.5,100.4z"/>
	<path class="st16" d="M22.5,99.1l2.6-13.5l0.4-11.4h2.3c0,0,2.9,4,9.2,3.6s8.1-3.6,8.1-3.6h2.6v12l2.4,12.6"/>
	<path d="M44,52.2l0.8,2.3c0,0,6.8-2.2,11.6-1.6l0.2-3C56.6,49.8,51.4,48.6,44,52.2z"/>
	<path d="M28.4,52.2l-0.8,2.3c0,0-6.8-2.2-11.6-1.6l-0.2-3C15.8,49.8,20.9,48.6,28.4,52.2z"/>
	<polygon class="st5" points="16.5,42.6 27.1,40.3 27.1,45.1 14.6,45.3 	"/>
	<polygon class="st5" points="43.5,42.6 44.3,47.3 57.4,46.3 55.2,43.3 	"/>
	<ellipse class="st6" cx="16.3" cy="56.9" rx="2.2" ry="0.7"/>
	<path class="st4" d="M28.8,60H42c0,0-1.2,3.1-6.6,3.1S28.8,60,28.8,60z"/>
	<path class="st16" d="M25.6,74.1c0,0-4.3,5.7-8.1,30.6h3.8L26,84.5L25.6,74.1z"/>
	<path class="st16" d="M47.7,74.1c0,0,5.2,5.7,9,30.6h-4.7l-4.7-20.2L47.7,74.1z"/>
	<ellipse class="st6" cx="55.7" cy="56.9" rx="2.2" ry="0.7"/>
	<line class="st17" x1="24.7" y1="100.4" x2="24.7" y2="146.9"/>
	<line class="st17" x1="27" y1="100.4" x2="27" y2="146.9"/>
	<line class="st17" x1="29.9" y1="100.4" x2="29.9" y2="146.9"/>
	<line class="st17" x1="32.4" y1="100.4" x2="32.4" y2="146.9"/>
	<line class="st17" x1="34.6" y1="100.4" x2="34.6" y2="146.9"/>
	<line class="st17" x1="38.1" y1="100.4" x2="38.1" y2="146.9"/>
	<line class="st17" x1="41.1" y1="100.4" x2="41.1" y2="146.9"/>
	<line class="st17" x1="44.2" y1="100.4" x2="44.2" y2="146.9"/>
	<line class="st17" x1="47.2" y1="100.4" x2="47.2" y2="146.9"/>
</g>
<g class="st18">
	<path d="M22.8,167.3c0.6-0.6,1.3-0.9,2.3-0.9c1,0,2,0.1,3,0.3l-0.3,2.6c-1.1-0.2-1.8-0.4-2.2-0.4c-0.5,0-0.8,0.2-0.8,0.6
		c0,0.2,0.1,0.3,0.4,0.5s0.5,0.3,0.9,0.5c0.3,0.2,0.7,0.4,1,0.6c0.3,0.2,0.6,0.6,0.9,1c0.2,0.4,0.4,0.9,0.4,1.5c0,1-0.3,1.8-0.8,2.4
		c-0.5,0.6-1.3,0.8-2.3,0.8s-2-0.2-2.9-0.5l0.2-2.4c1.1,0.3,1.9,0.5,2.4,0.5c0.4,0,0.7-0.2,0.7-0.6c0-0.2-0.1-0.4-0.4-0.6
		s-0.5-0.3-0.9-0.5c-0.3-0.2-0.7-0.4-1-0.6c-0.3-0.2-0.6-0.5-0.9-1s-0.4-0.9-0.4-1.5C22,168.6,22.3,167.8,22.8,167.3z"/>
	<path d="M28.9,172.6c0-1.4,0.3-2.4,0.8-3c0.5-0.6,1.4-0.9,2.5-0.9c1.1,0,2,0.3,2.5,0.9c0.5,0.6,0.8,1.6,0.8,3s-0.3,2.4-0.8,3.1
		c-0.5,0.6-1.3,1-2.5,1c-1.2,0-2-0.3-2.5-1C29.2,175.1,28.9,174,28.9,172.6z M32.8,171.1c-0.1-0.2-0.2-0.3-0.5-0.3
		c-0.3,0-0.5,0.1-0.5,0.3c-0.1,0.2-0.1,0.7-0.1,1.3v0.4c0,0.8,0,1.2,0.1,1.5c0.1,0.2,0.2,0.3,0.5,0.3c0.3,0,0.4-0.1,0.5-0.3
		c0.1-0.2,0.1-0.7,0.1-1.4v-0.5C32.9,171.8,32.8,171.3,32.8,171.1z"/>
	<path d="M36.4,174.7v-8.5H39v7.6c0,0.2,0,0.3,0.1,0.4c0.1,0.1,0.2,0.1,0.4,0.1l-0.2,2.3h-0.9c-0.7,0-1.2-0.1-1.6-0.4
		C36.6,175.9,36.4,175.4,36.4,174.7z"/>
	<path d="M43.4,168.6c1.1,0,1.9,0.3,2.4,0.8c0.5,0.5,0.7,1.3,0.7,2.3c0,0.1,0,0.7-0.1,1.7h-3.6c0,0.8,0.4,1.2,1.1,1.2
		c0.4,0,1-0.1,2.1-0.4l0.2,2c-0.9,0.3-1.8,0.4-2.7,0.4c-1.1,0-1.9-0.4-2.5-1.1c-0.6-0.7-0.9-1.7-0.9-2.9
		C40,170,41.1,168.6,43.4,168.6z M43.3,170.9c-0.3,0-0.5,0.1-0.5,0.3c-0.1,0.2-0.1,0.5-0.1,0.9H44v-0.4
		C44,171.2,43.8,170.9,43.3,170.9z"/>
	<path d="M47.5,168.3c-0.2-0.2-0.3-0.5-0.3-0.9s0.1-0.7,0.3-0.9c0.2-0.2,0.6-0.3,1.1-0.3s0.9,0.1,1.1,0.3c0.2,0.2,0.3,0.5,0.3,0.9
		c0,0.4-0.1,0.7-0.3,0.9c-0.2,0.2-0.6,0.3-1.1,0.3S47.7,168.5,47.5,168.3z M49.9,176.5h-2.6v-7.6h2.6V176.5z"/>
	<path d="M50.9,174.7v-8.5h2.6v7.6c0,0.2,0,0.3,0.1,0.4c0.1,0.1,0.2,0.1,0.4,0.1l-0.2,2.3H53c-0.7,0-1.2-0.1-1.6-0.4
		C51.1,175.9,50.9,175.4,50.9,174.7z"/>
</g>
<g class="st18">
	<path d="M121.7,176.8h-2.5v-5.2h-0.1l-0.9,5.2h-2.6l-0.9-5.2h-0.2v5.2H112l0.3-9.9h3.6l0.9,5.4h0.1l0.9-5.4h3.6L121.7,176.8z"/>
	<path d="M128.6,171.2l-0.1,3.3c0,0.2,0.1,0.3,0.2,0.4c0.1,0.1,0.3,0.1,0.5,0.1l-0.2,1.9c-0.6,0-1,0.1-1,0.1c-0.8,0-1.3-0.3-1.5-0.8
		h-0.1c-0.4,0.5-1,0.8-1.8,0.8c-0.6,0-1.1-0.2-1.4-0.6s-0.5-1-0.5-1.7c0-0.9,0.3-1.5,0.8-1.8c0.5-0.3,1.4-0.6,2.6-0.7v-0.4
		c0-0.3-0.1-0.4-0.4-0.4c-0.5,0-1.3,0.2-2.4,0.5l-0.4-2.3c1.4-0.4,2.5-0.5,3.4-0.5c0.9,0,1.5,0.2,1.9,0.5
		C128.4,169.8,128.6,170.4,128.6,171.2z M125.5,175.1c0.4,0,0.6-0.2,0.6-0.6v-0.8c-0.4,0.1-0.7,0.1-0.8,0.2s-0.2,0.3-0.2,0.6
		C125,174.9,125.2,175.1,125.5,175.1z"/>
	<path d="M132.5,172.5v4.3h-2.7v-7.7h2.3l0.2,0.5h0.1c0.2-0.3,0.5-0.5,0.7-0.5c0.3-0.1,0.7-0.1,1.2-0.1l-0.1,2.6h-0.7
		c-0.4,0-0.7,0.1-0.8,0.2C132.5,171.8,132.5,172.1,132.5,172.5z"/>
	<path d="M135.1,168.6c-0.2-0.2-0.3-0.5-0.3-0.9s0.1-0.7,0.3-0.9c0.2-0.2,0.6-0.3,1.1-0.3c0.5,0,0.9,0.1,1.1,0.3
		c0.2,0.2,0.3,0.5,0.3,0.9c0,0.4-0.1,0.7-0.3,0.9s-0.6,0.3-1.1,0.3C135.7,168.9,135.3,168.8,135.1,168.6z M137.5,176.8h-2.6v-7.6
		h2.6V176.8z"/>
	<path d="M138.1,171.4c0-0.8,0.2-1.4,0.7-1.8s1.1-0.6,2-0.6s1.7,0.1,2.5,0.3l-0.3,2.2c-1.1-0.2-1.8-0.4-2.2-0.4
		c-0.2,0-0.3,0.1-0.3,0.3c0,0.1,0.1,0.2,0.4,0.3c0.9,0.3,1.5,0.7,1.9,1.1c0.4,0.4,0.6,1,0.6,1.8s-0.2,1.4-0.6,1.8
		c-0.4,0.4-1,0.6-1.9,0.6s-1.7-0.1-2.5-0.3l0.2-2.2c1.1,0.3,1.8,0.4,2.1,0.4c0.3,0,0.5-0.1,0.5-0.2s-0.1-0.3-0.4-0.4
		c-0.9-0.4-1.6-0.7-2.1-1.2C138.3,172.8,138.1,172.2,138.1,171.4z"/>
	<path d="M149.8,171.2l-0.1,3.3c0,0.2,0.1,0.3,0.2,0.4c0.1,0.1,0.3,0.1,0.5,0.1l-0.2,1.9c-0.6,0-1,0.1-1,0.1c-0.8,0-1.3-0.3-1.5-0.8
		h-0.1c-0.4,0.5-1,0.8-1.8,0.8c-0.6,0-1.1-0.2-1.4-0.6s-0.5-1-0.5-1.7c0-0.9,0.3-1.5,0.8-1.8c0.5-0.3,1.4-0.6,2.6-0.7v-0.4
		c0-0.3-0.1-0.4-0.4-0.4c-0.5,0-1.3,0.2-2.4,0.5l-0.4-2.3c1.4-0.4,2.5-0.5,3.4-0.5c0.9,0,1.5,0.2,1.9,0.5
		C149.6,169.8,149.8,170.4,149.8,171.2z M146.7,175.1c0.4,0,0.6-0.2,0.6-0.6v-0.8c-0.4,0.1-0.7,0.1-0.8,0.2s-0.2,0.3-0.2,0.6
		C146.2,174.9,146.4,175.1,146.7,175.1z"/>
</g>
<g class="st18">
	<path d="M208.7,176.5h-2.5v-5.2h-0.1l-0.9,5.2h-2.6l-0.9-5.2h-0.2v5.2H199l0.3-9.9h3.6l0.9,5.4h0.1l0.9-5.4h3.6L208.7,176.5z"/>
	<path d="M213.1,168.6c1.1,0,1.9,0.3,2.4,0.8c0.5,0.5,0.7,1.3,0.7,2.3c0,0.1,0,0.7-0.1,1.7h-3.6c0,0.8,0.4,1.2,1.1,1.2
		c0.4,0,1-0.1,2.1-0.4l0.2,2c-0.9,0.3-1.8,0.4-2.7,0.4c-1.1,0-1.9-0.4-2.5-1.1c-0.6-0.7-0.9-1.7-0.9-2.9
		C209.7,170,210.8,168.6,213.1,168.6z M213,170.9c-0.3,0-0.5,0.1-0.5,0.3c-0.1,0.2-0.1,0.5-0.1,0.9h1.4v-0.4
		C213.7,171.2,213.5,170.9,213,170.9z"/>
	<path d="M219.8,168.6h3.8v1.8h-1.2v0.1c0.3,0.3,0.5,0.7,0.5,1.2c0,1.7-1,2.6-2.9,2.6h-0.8c-0.2,0-0.3,0.1-0.3,0.3s0.1,0.3,0.3,0.3
		h2.2c1.2,0,1.8,0.5,1.8,1.6c0,0.9-0.3,1.5-0.9,1.9c-0.6,0.4-1.4,0.6-2.4,0.6c-1,0-1.8-0.1-2.3-0.3c-0.5-0.2-0.8-0.6-0.8-1.2
		c0-0.3,0.2-0.6,0.6-0.8v-0.1c-0.5-0.3-0.8-0.7-0.8-1.2c0-0.6,0.4-1.1,1.2-1.5c-0.4-0.3-0.7-0.6-0.9-1c-0.2-0.4-0.3-0.9-0.3-1.5
		c0-0.8,0.3-1.5,0.8-1.9C218.2,168.9,218.9,168.6,219.8,168.6z M219.2,177.2h1.6c0.2,0,0.3-0.1,0.3-0.3v-0.1c0-0.2-0.1-0.2-0.3-0.2
		h-1.6c-0.2,0-0.3,0.1-0.3,0.3v0.1C218.9,177.1,219,177.2,219.2,177.2z M220.4,171c-0.1-0.2-0.2-0.2-0.4-0.2c-0.2,0-0.4,0.1-0.4,0.2
		s-0.1,0.4-0.1,0.7c0,0.7,0.2,1,0.6,1c0.4,0,0.5-0.3,0.5-0.9C220.5,171.4,220.5,171.1,220.4,171z"/>
	<path d="M229.8,170.8l-0.1,3.3c0,0.2,0.1,0.3,0.2,0.4c0.1,0.1,0.3,0.1,0.5,0.1l-0.2,1.9c-0.6,0-1,0.1-1,0.1c-0.8,0-1.3-0.3-1.5-0.8
		h-0.1c-0.4,0.5-1,0.8-1.8,0.8c-0.6,0-1.1-0.2-1.4-0.6c-0.3-0.4-0.5-1-0.5-1.7c0-0.9,0.3-1.5,0.8-1.8c0.5-0.3,1.4-0.6,2.6-0.7v-0.4
		c0-0.3-0.1-0.4-0.4-0.4c-0.5,0-1.3,0.2-2.4,0.5l-0.4-2.3c1.4-0.4,2.5-0.5,3.4-0.5s1.5,0.2,1.9,0.5
		C229.7,169.5,229.8,170.1,229.8,170.8z M226.8,174.8c0.4,0,0.6-0.2,0.6-0.6v-0.8c-0.4,0.1-0.7,0.1-0.8,0.2
		c-0.2,0.1-0.2,0.3-0.2,0.6C226.3,174.6,226.4,174.8,226.8,174.8z"/>
	<path d="M233.7,169.4c0.6-0.5,1.2-0.8,1.9-0.8s1.2,0.2,1.5,0.5c0.3,0.3,0.4,0.8,0.4,1.5v5.9h-2.7v-5c0-0.3-0.1-0.4-0.4-0.4
		c-0.3,0-0.5,0.1-0.8,0.2v5.2H231v-7.7h2.4L233.7,169.4L233.7,169.4z"/>
</g>
<g class="st18">
	<path d="M289.7,167.4c0.6-0.6,1.3-0.9,2.3-0.9c1,0,2,0.1,3,0.3l-0.3,2.6c-1.1-0.2-1.8-0.4-2.2-0.4c-0.5,0-0.8,0.2-0.8,0.6
		c0,0.2,0.1,0.3,0.4,0.5s0.5,0.3,0.9,0.5c0.3,0.2,0.7,0.4,1,0.6c0.3,0.2,0.6,0.6,0.9,1s0.4,0.9,0.4,1.5c0,1-0.3,1.8-0.8,2.4
		s-1.3,0.8-2.3,0.8c-1,0-2-0.2-2.9-0.5l0.2-2.4c1.1,0.3,1.9,0.5,2.4,0.5s0.7-0.2,0.7-0.6c0-0.2-0.1-0.4-0.4-0.6
		c-0.2-0.2-0.5-0.3-0.9-0.5c-0.3-0.2-0.7-0.4-1-0.6c-0.3-0.2-0.6-0.5-0.9-1s-0.4-0.9-0.4-1.5C288.9,168.8,289.2,168,289.7,167.4z"/>
	<path d="M298.7,169.6c0.6-0.5,1.2-0.8,1.9-0.8c0.7,0,1.2,0.2,1.4,0.5c0.3,0.3,0.4,0.8,0.4,1.5v5.9h-2.7v-5c0-0.3-0.1-0.4-0.4-0.4
		c-0.3,0-0.5,0.1-0.8,0.2v5.2h-2.7v-10.3h2.7L298.7,169.6L298.7,169.6z"/>
	<path d="M309.2,171l-0.1,3.3c0,0.2,0.1,0.3,0.2,0.4c0.1,0.1,0.3,0.1,0.5,0.1l-0.2,1.9c-0.6,0-1,0.1-1,0.1c-0.8,0-1.3-0.3-1.5-0.8
		h-0.1c-0.4,0.5-1,0.8-1.8,0.8c-0.6,0-1.1-0.2-1.4-0.6s-0.5-1-0.5-1.7c0-0.9,0.3-1.5,0.8-1.8c0.5-0.3,1.4-0.6,2.6-0.7v-0.4
		c0-0.3-0.2-0.4-0.4-0.4c-0.5,0-1.3,0.2-2.4,0.5l-0.4-2.3c1.4-0.4,2.5-0.5,3.4-0.5c0.9,0,1.5,0.2,1.9,0.5
		C309,169.7,309.2,170.2,309.2,171z M306.1,174.9c0.4,0,0.6-0.2,0.6-0.6v-0.8c-0.4,0.1-0.7,0.1-0.8,0.2s-0.2,0.3-0.2,0.6
		C305.6,174.7,305.8,174.9,306.1,174.9z"/>
	<path d="M313.7,168.8c1.1,0,1.9,0.3,2.4,0.8c0.5,0.5,0.7,1.3,0.7,2.3c0,0.1,0,0.7-0.1,1.7H313c0,0.8,0.4,1.2,1.1,1.2
		c0.4,0,1-0.1,2.1-0.4l0.2,2c-0.9,0.3-1.8,0.4-2.7,0.4c-1.1,0-1.9-0.4-2.5-1.1c-0.6-0.7-0.9-1.7-0.9-2.9
		C310.3,170.1,311.4,168.8,313.7,168.8z M313.6,171.1c-0.3,0-0.5,0.1-0.5,0.3s-0.1,0.5-0.1,0.9h1.4v-0.4
		C314.3,171.3,314.1,171.1,313.6,171.1z"/>
</g>
</svg>
