<?xml version="1.0" encoding="utf-8"?>
<!-- Generator: Adobe Illustrator 26.0.2, SVG Export Plug-In . SVG Version: 6.00 Build 0)  -->
<svg version="1.1" xmlns="http://www.w3.org/2000/svg" xmlns:xlink="http://www.w3.org/1999/xlink" x="0px" y="0px"
	 viewBox="0 0 56.67 57.1" style="enable-background:new 0 0 56.67 57.1;" xml:space="preserve">
<style type="text/css">
	.st0{fill:#80541E;stroke:#000000;stroke-width:0.25;stroke-miterlimit:10;}
	.st1{fill:#FFCD9A;stroke:#000000;stroke-width:0.25;stroke-miterlimit:10;}
	.st2{fill:none;stroke:#000000;stroke-width:0.25;stroke-miterlimit:10;}
	.st3{fill:#7F551E;stroke:#000000;stroke-width:0.2789;stroke-miterlimit:10;}
	.st4{fill:#FFCD9A;stroke:#000000;stroke-width:0.2529;stroke-miterlimit:10;}
	.st5{fill:#FFCD9A;stroke:#000000;stroke-width:0.3073;stroke-miterlimit:10;}
	.st6{fill:#FFCD9A;stroke:#000000;stroke-width:0.3527;stroke-miterlimit:10;}
	.st7{fill:#FFFFFF;stroke:#000000;stroke-width:0.25;stroke-miterlimit:10;}
	.st8{stroke:#000000;stroke-width:0.2871;stroke-miterlimit:10;}
	.st9{fill:#FFCD9A;stroke:#000000;stroke-width:0.252;stroke-miterlimit:10;}
	.st10{stroke:#000000;stroke-width:0.3527;stroke-miterlimit:10;}
	.st11{fill:#FF0000;stroke:#000000;stroke-width:0.3527;stroke-miterlimit:10;}
	.st12{fill:#FFC0C3;stroke:#000000;stroke-width:0.25;stroke-miterlimit:10;}
	.st13{fill:#595959;stroke:#000000;stroke-width:0.25;stroke-miterlimit:10;}
	.st14{fill:#595959;stroke:#000000;stroke-width:0.2992;stroke-miterlimit:10;}
	.st15{fill:#5C5C5C;stroke:#000000;stroke-width:0.25;stroke-miterlimit:10;}
	.st16{fill:#5C5C5C;}
	.st17{fill:none;stroke:#000000;stroke-width:0.285;stroke-miterlimit:10;}
	.st18{stroke:#000000;stroke-width:0.25;stroke-miterlimit:10;}
	.st19{fill:none;stroke:#000000;stroke-width:0.2533;stroke-miterlimit:10;}
	.st20{fill:#FDB8B7;}
	.st21{fill:#5C5C5C;stroke:#000000;stroke-miterlimit:10;}
</style>
<g id="Layer_2">
	<g>
		<g>
			<rect x="-57.99" y="49.93" class="st0" width="13.93" height="28.13"/>
			<path class="st0" d="M-105.19,52.47c0,0,0.08,9.21,8.67,10.73c8.59,1.53,11.02-7.97,11.02-7.97s2.44-5.24,7.31-4.58
				s4.05,6.81,4.05,6.81h3.18c0,0,0.37-2.81-0.74-5.37s-3.67-4.33-4-4.54s-4.42-3.47-9.17,1.53c0,0-2.6,2.48-3.43,4.09
				c-0.83,1.61-3.47,4.38-7.35,3.9c-3.88-0.48-4.5-3.78-4.5-3.78s-0.29-1.03,1.36-1.9c0.21-0.78,0.7-2.31-0.91-2.97
				c-1.61-0.66-3.47-0.1-4.42,1.5C-105.07,51.52-105.19,52.47-105.19,52.47z"/>
			<g>
				<path class="st1" d="M-68.72,74.62l-4.1-2.31h-3.28c0,0-3.39,0.41-2.97,3.3c0,0-0.17,1.43,1.13,2.48c0,0,0.33,1.43,2.34,1.27
					c0,0,1.65,1.65,4.1,0.17c0,0,0.28-0.39,1.29-0.22l3.63,0.03L-68.72,74.62z"/>
				<path class="st2" d="M-73.85,75.44c0,0-3.55,0.83-1.76,3.91"/>
				<path class="st2" d="M-74.98,74.06c0,0-1.89,0.19-2.97,4.02"/>
			</g>
			<path class="st0" d="M-65.93,57.08c0,0-1.17,0.27-5.1-0.85s-5.74,2.93-5.74,2.93s-1.32,2.89-0.87,6.4h0.5
				c0,0-0.74,2.89,0.74,1.98c0,0,1.24,3.92,2.97,4.77c1.73,0.85,0.04,0.89,0.04,0.89s-0.83,1,0.95,0.79c0.6-0.55,0.71-0.07,0.6,0.44
				l1.71,0.22c0,0,0.14,0.97,1.16,0.8s2.14-1.45,2.14-1.45l3.88-10.16L-65.93,57.08z"/>
			<g>
				<path class="st1" d="M-58.21,79.93c8.38-0.83,4.21-7.39,4.21-7.39l-12.88,0.29c0,0-2.72,0.25-2.15,4.42s5.2,2.68,5.2,2.68
					s1.04,1.16,2.79,0.99C-59.28,80.75-58.21,79.93-58.21,79.93z"/>
				<line class="st2" x1="-66.13" y1="73.2" x2="-64.52" y2="76.09"/>
				<path class="st2" d="M-66.42,76.42c0,0-0.32-2.22,0.73-2.43"/>
				<path class="st2" d="M-62.05,76.91c0,0-0.04,1.9-1.78,3.01"/>
				<path class="st2" d="M-56.97,77.16c0,0,0.04,1.49-1.24,2.77"/>
			</g>
			<g>
				<path class="st1" d="M-33.63,74.62l4.1-2.31h3.28c0,0,3.39,0.41,2.97,3.3c0,0,0.17,1.43-1.13,2.48c0,0-0.33,1.43-2.34,1.27
					c0,0-1.65,1.65-4.1,0.17c0,0-0.28-0.39-1.29-0.22l-3.63,0.03L-33.63,74.62z"/>
				<path class="st2" d="M-28.51,75.44c0,0,3.55,0.83,1.76,3.91"/>
				<path class="st2" d="M-27.38,74.06c0,0,1.89,0.19,2.97,4.02"/>
			</g>
			<path class="st0" d="M-36.43,57.08c0,0,1.17,0.27,5.1-0.85s5.74,2.93,5.74,2.93s1.32,2.89,0.87,6.4h-0.5c0,0,0.74,2.89-0.74,1.98
				c0,0-1.24,3.92-2.97,4.77c-1.73,0.85-0.04,0.89-0.04,0.89s0.83,1-0.95,0.79c-0.6-0.55-0.71-0.07-0.6,0.44l-1.71,0.22
				c0,0-0.14,0.97-1.16,0.8c-1.02-0.18-2.14-1.45-2.14-1.45l-3.88-10.16L-36.43,57.08z"/>
			<g>
				<path class="st1" d="M-44.38,79.86c-8.34-1.15-3.92-7.55-3.92-7.55l12.86,0.79c0,0,2.71,0.35,1.97,4.5
					c-0.74,4.14-5.3,2.48-5.3,2.48s-1.08,1.11-2.83,0.88C-43.34,80.72-44.38,79.86-44.38,79.86z"/>
				<line class="st2" x1="-36.19" y1="73.44" x2="-37.92" y2="76.27"/>
				<path class="st2" d="M-36.03,76.67c0,0,0.41-2.21-0.63-2.46"/>
				<path class="st2" d="M-40.42,76.99c0,0-0.03,1.9,1.66,3.08"/>
				<path class="st2" d="M-45.51,77.04c0,0-0.1,1.48,1.13,2.81"/>
			</g>
			<path class="st0" d="M-55.4,51.47c0,0,0.44,1.49-0.17,5.94s0.22,6.44,0.33,7.1c0.11,0.66,1.87,4.62,1.52,6.94
				c-0.06,0.42-0.16,0.78-0.3,1.09c-0.6,1.39-1.87,1.74-3.26,1.83c-1.71,0.11-3.14-0.88-3.14-0.88s-0.88,0.94-1.76,0.88
				s-1.49-1.38-1.49-1.38c-1.05,0.5-1.16,0.39-2.79,0s-1.17-2.7,0-4.57c1.17-1.87,0.97-4.29,0.37-9.08
				c-1.38-12.28,1.57-16.96,1.57-16.96l24.24-2.64c0,0,5.12,5.68,4.13,14.6c-0.99,8.92-1.07,12.55,0.13,14.37
				c1.19,1.82,1.56,3.96,0,4.35c-1.56,0.39-2.38,0.44-2.88-0.39c0,0-0.39,1.67-1.32,1.72c-0.94,0.04-1.87-0.95-1.87-0.95
				s-1.38,1.24-4.29,0.95c-2.92-0.29-2.37-5.08-2.37-5.08s1.87-5.72,2.04-6.83c0.17-1.1-0.31-6.22-0.4-7.49
				c-0.09-1.27,0-3.47,0-3.47"/>
		</g>
		<path class="st3" d="M-81.2,9.41c0,0,2.91-12.43,6.16-15.28s3.19-4.17,8.72-5.03c0,0-3.36-6.02-3.71-7.87
			c-0.34-1.85,5.19,1.39,5.19,1.39s0.38-1.52,2.9-3.31c2.52-1.79,0.92,3.37,0.92,3.37s6.16-4.43,6.5-2.05s-1.34,5.43-1.34,5.43
			s14.68-0.36,18.9,5.71s6.73,11.64,6.73,11.64L-81.2,9.41z"/>
		<path class="st4" d="M-76.65,7.73c0,0,2.73,2.01,2.17,7.8c2.45,0,38.39-1,38.39-1v-2.89c0,0-1.34-4.51,0.56-7.91
			c0,0-0.22-5.96-5.57-10.3s-12.2-0.78-12.2-0.78s-2.84,1.56-3.68,2.84c0,0-3.57-2.73-8.13-2.51c-4.57,0.22-7.97,3.28-9.36,5.34
			C-75.87,0.38-76.54,3.77-76.65,7.73z"/>
		<ellipse class="st5" cx="-27.28" cy="8.3" rx="9.25" ry="9.53"/>
		<ellipse class="st6" cx="-83.28" cy="14.02" rx="9.16" ry="9.48"/>
		<g>
			<ellipse class="st7" cx="-65.7" cy="5.31" rx="3.74" ry="3.86"/>
			<ellipse class="st8" cx="-65.83" cy="5.94" rx="2.89" ry="2.81"/>
		</g>
		<g>
			<ellipse class="st7" cx="-47.74" cy="3.13" rx="3.74" ry="3.86"/>
			<ellipse class="st8" cx="-47.87" cy="3.76" rx="2.89" ry="2.81"/>
		</g>
		
			<ellipse transform="matrix(0.9918 -0.1274 0.1274 0.9918 -3.6655 -6.6379)" class="st9" cx="-53.71" cy="25.33" rx="26.8" ry="17.71"/>
		<path class="st10" d="M-59.57,30.9l12.47-1.42c0,0-1.49,4.62-5.2,5.12C-56.02,35.09-59.57,30.9-59.57,30.9z"/>
		<path class="st11" d="M-57.71,32.62c0,0,4.29-0.99,6.61,1.16C-52.35,34.35-53.58,34.68-57.71,32.62z"/>
		<path class="st10" d="M-58.37,14.86c0,0,1.49,1.29,3.96-0.84s6.28-4.44,1.49-5.19c-4.79-0.74-9.08,1.24-10.82,2.72
			c-1.73,1.49,2.27,2.46,2.27,2.46L-58.37,14.86z"/>
	</g>
</g>
<g id="Layer_3">
	<g>
		<path class="st12" d="M56.44,5.62c0,0-6.36,1.24-4.87,15.07c1.49,13.83-1.2,14.41-1.2,14.41l-0.99,6.28h1.52
			c0,0,2.65-2.27,3.56-7.35c0.91-5.08-0.5-12.59-0.5-12.59s-1.2-7.22,0.21-10.69S56.44,5.62,56.44,5.62z"/>
		<polygon class="st13" points="24.98,52.46 20.42,52.9 21.8,53.53 20.42,54.5 22.27,54.5 20.62,55.82 25.4,55.27 30.99,54.69 
			30.5,51.52 		"/>
		<path class="st2" d="M8.12,9.79c0,0,1.02-2.25,2.86-2.98"/>
		<line class="st14" x1="6.72" y1="10.1" x2="8.12" y2="7.87"/>
		<polygon class="st13" points="11.72,23.47 6.38,24.4 7.83,24.81 6.2,25.56 7.89,25.56 9.99,26.05 12.84,25.25 		"/>
		<polygon class="st13" points="14.43,28.18 7.31,27.99 8.32,27.48 6.75,27.1 8.38,26.71 7.1,25.56 13.94,24.42 		"/>
		
			<ellipse transform="matrix(0.6101 -0.7923 0.7923 0.6101 2.0197 20.1152)" class="st15" cx="21.45" cy="8.01" rx="8.44" ry="6.83"/>
		<path class="st15" d="M2.98,11.96l0.41-2.55c0,0,1.73,0.99,3.55,0.58c1.82-0.41,5.28-3.37,7.6-3.42s4.95-0.63,7.27,1.27
			s6.28,11.06,8.67,12.47c2.15,1.98,4.62,4.21,8.09,5.53c3.35,1.27,10.15,4.47,11.66,8.77c0.06,0.16,0.1,0.32,0.14,0.48
			c1.16,4.54,1.65,8.67-4.87,13.71c0,0-2.56,1.82-4.54,2.31l-10.1,2.06c0,0-3.3,0.61-7.6-1.27c-4.29-1.87-6.22-5.17-6.83-8.37
			c-0.22-3.25-0.5-8.09-1.16-10.79s-1.71-5.39-1.71-5.39l-3.74-3.63c0,0-4.57-3.41-6.17-8.09C3.28,13.98,2.98,11.96,2.98,11.96z"/>
		
			<ellipse transform="matrix(0.8405 -0.5419 0.5419 0.8405 -2.3653 16.7858)" class="st16" cx="27.32" cy="12.41" rx="8.41" ry="6.53"/>
		<ellipse transform="matrix(0.8405 -0.5419 0.5419 0.8405 -4.7641 3.7368)" cx="3.96" cy="9.96" rx="1.61" ry="1.18"/>
		<line class="st17" x1="6.98" y1="7.18" x2="5.98" y2="10.1"/>
		<ellipse transform="matrix(0.36 -0.933 0.933 0.36 -4.4683 19.1397)" class="st18" cx="11.72" cy="12.83" rx="1.49" ry="0.77"/>
		<path class="st19" d="M18.25,13.45c0,0,3.01-5.6,7.02-7.21c4.58-1.84,6.69-0.46,6.69-0.46s2.97,1.27,3.22,4.62
			c0.25,3.35-2.06,5.64-3.34,6.74c-1.28,1.1-4,2.92-6.03,3.18"/>
		<path class="st20" d="M19.78,14.53c0,0,3.43,1.4,4.91,4.62c2.11-0.25,3.8,0.41,8.26-5.7c0.7-1.86,1.2-3.47-0.87-5.74
			c-2.06-2.27-7.84,0.41-7.84,0.41S20.03,10.98,19.78,14.53z"/>
		<path class="st16" d="M38.31,35.84l2.27,15.03c0,0,1.82,3.88-4.33,4.91s-8.67,1.53-10.65,0.95l1.07-0.74l-1.69-0.95l1.65-0.17
			l-1.2-0.91c0,0,1.94,0.29,2.97,0.17c1.03-0.12,2.44,0.08,1.4-2.97c-1.03-3.06-2.68-5.9-0.62-10.44s7.22-5.61,7.22-5.61
			S38.44,34.68,38.31,35.84z"/>
		<path class="st21" d="M16.1,53.75"/>
		<path class="st2" d="M40.58,50.86c0,0,1.82,3.88-4.33,4.91s-8.67,1.53-10.65,0.95l1.07-0.74l-1.69-0.95l1.65-0.17l-1.2-0.91
			c0,0,1.94,0.29,2.97,0.17c1.03-0.12,2.44,0.08,1.4-2.97c-1.03-3.06-2.68-5.9-0.62-10.44s7.22-5.61,7.22-5.61s2.02-0.41,1.9,0.74"
			/>
		<path class="st17" d="M4.35,12.41c0,0-3.11,4.38-4.21,10.85"/>
		<path class="st17" d="M5.15,12.83c0,0-1.98,5.56-2.17,8.17"/>
		<path class="st17" d="M6.61,12c0,0-1.24,7.38-1.13,10.05"/>
	</g>
</g>
</svg>
